<?xml version="1.0"?><svg width="640" height="480" xmlns="http://www.w3.org/2000/svg">
 <title>kotek</title>
 <g>
  <title>Layer 1</title>
  <g id="g5">
   <path fill-rule="evenodd" stroke="#000000" stroke-width="0.036" stroke-miterlimit="10" id="path7" d="m34.75119,148.120636c8.563042,-10.988831 24.306175,-15.900787 37.782143,-19.780548c13.602928,-3.749428 29.723526,-7.111343 42.94783,-2.844078c13.223183,4.267281 30.602058,16.548943 35.514977,28.313942c4.784851,11.895325 -3.905151,29.737122 -6.675613,41.759277c-2.895172,12.02446 -8.815857,20.040024 -10.202209,29.607941c-1.25827,9.437592 0.126953,19.005508 2.267166,27.149063c2.142456,8.276215 5.667892,15.256073 10.705505,21.463257l0,0c6.926147,-2.328552 13.601776,-4.138153 21.41098,-4.007813c7.302505,-0.515503 14.103989,-0.260651 23.804001,2.844116c9.696625,3.233917 21.15712,12.282806 33.875839,15.125702c12.46936,2.458923 27.709167,2.069092 39.419022,-1.163666c11.084137,-3.878632 20.149323,-10.85849 27.201294,-21.459747l0,0l28.212494,22.623413l0,0c-7.430573,2.844116 -12.718719,7.629211 -15.867859,13.317352c-3.525421,5.688171 -1.259369,13.316193 -3.399567,21.462097c-2.521057,7.884094 -5.417358,16.937622 -10.078644,26.634705l0,0c7.307037,2.844055 13.09848,7.628082 16.374542,13.316223c3.14566,5.5578 4.78595,13.056641 3.905182,21.459686l0,0c7.430603,-3.74942 13.472534,-4.913116 18.639374,-3.488739c5.034241,1.419708 9.947205,7.628052 11.33017,12.151337c1.261627,4.006561 -0.248322,8.791718 -4.026489,13.316193l0,0c0.880737,5.55777 0.880737,9.826263 0,13.316223c-1.387512,3.229248 -3.27832,5.55777 -6.173492,6.982117c-2.89743,1.032227 -6.676758,1.032227 -11.332336,0l0,0c-0.252808,6.334015 -2.142487,10.987671 -5.667877,14.47644c-3.778259,3.233917 -10.326935,5.819611 -15.743134,5.304108c-5.920685,-0.649292 -13.980408,-3.74939 -16.372284,-9.308411c-2.014374,-6.208282 2.519928,-17.454254 3.400726,-24.308502c0.502228,-6.852997 1.257141,-11.376251 -0.632568,-15.125702c-2.136749,-4.008911 -6.420563,-6.722687 -12.338959,-8.142395l0,0c-0.630249,10.596619 -2.141327,18.743652 -4.535431,24.948486c-2.643524,6.337524 -6.04425,9.567932 -10.704376,11.636993l0,0c8.438354,3.363129 14.232056,7.23938 16.373383,12.151337c2.013245,4.783936 -0.253906,12.672638 -2.8974,16.161407c-2.89743,3.103607 -7.053101,4.267303 -12.972656,2.974457l0,0c-0.62912,5.947632 -2.266022,10.342926 -3.90181,12.670349c-1.764969,2.07019 -4.536545,2.327362 -7.305878,1.810699c-3.147949,-0.388702 -6.926132,-2.585785 -11.333481,-5.172668l0,0c-2.142487,6.337494 -5.542084,8.922089 -10.202194,9.182739c-4.91185,0 -13.980469,-3.233887 -18.009171,-9.182739c-4.031006,-6.203644 -8.564178,-18.615662 -6.298157,-27.2771c2.014374,-9.179199 12.594025,-19.005463 18.134979,-25.470978c5.037598,-6.720367 11.461594,-9.051239 12.972626,-13.960846c1.258301,-5.303009 -0.251633,-10.731628 -4.534302,-16.808472l0,0c-3.778198,3.61792 -8.311401,5.946503 -14.105072,6.982208c-5.667877,1.034515 -12.592941,0.645813 -20.276306,-0.644714l0,0l2.769333,5.813843l0,0c5.540939,0.12915 9.321365,1.681488 11.335785,5.172638c2.013229,3.359589 2.013229,11.892944 0.503311,15.126892c-1.762741,2.842926 -5.666779,3.61795 -11.207703,2.327423l0,0c0.503311,4.395233 0.627991,7.884003 -0.631393,10.473267c-1.385239,2.195892 -4.407364,3.74942 -6.171204,4.653625c-2.013229,0.645844 -3.902908,0.645844 -5.665619,0l0,0c-5.163452,4.913086 -9.193314,7.3685 -13.601791,6.849487c-4.787094,-0.774994 -9.698898,-5.68927 -11.839081,-9.823914c-2.141342,-4.267273 -1.006607,-10.601288 0,-14.995422c0.881912,-4.783966 4.407349,-7.242859 5.666748,-12.282806c0.881927,-5.044647 0.881927,-11.380981 0,-18.490021l0,0c-2.391846,-1.680389 -4.658997,-3.232727 -6.801468,-4.654785c-2.391846,-1.80838 -4.658997,-3.363037 -6.800323,-5.171478l0,0c-0.377472,8.276215 -1.889679,15.254944 -5.037613,21.463257c-3.023254,5.689331 -8.312531,11.506622 -13.475967,14.995392c-5.667877,3.62027 -12.090759,5.559052 -19.773003,6.334015l0,0c4.407356,6.077972 6.927299,10.99231 6.170074,16.291779c-0.754982,4.914246 -6.045372,11.506622 -9.570801,13.316162c-3.904045,1.67926 -7.051979,0 -11.335777,-4.008911l0,0c-1.259392,4.138123 -3.525421,6.468994 -6.800339,6.983337c-3.652374,0.260681 -7.682243,-1.294037 -13.475967,-4.653595l0,0c-2.394112,4.139252 -4.787086,6.592346 -8.563019,6.852997c-3.778229,0.12915 -10.202202,-1.424347 -12.972664,-5.172638c-3.023262,-4.135773 -5.667896,-12.672638 -5.038761,-19.134674c0.252789,-6.593506 -1.635754,-13.187012 7.935043,-20.815063c9.697742,-8.404266 40.427906,-16.161407 48.488758,-27.279419c7.555305,-11.506653 -4.032127,-27.151367 -2.770462,-39.434204c0.880798,-12.667999 4.406227,-23.788269 9.570808,-34.777039l0,0c-9.697746,-14.740601 -14.988167,-29.606842 -16.373398,-45.123566c-1.636887,-15.771606 6.171196,-33.484238 8.438354,-47.57547c2.392967,-14.609055 7.682243,-28.315079 5.163452,-37.105637c-3.525429,-9.308426 -13.852318,-14.996582 -22.669296,-15.6436c-9.068619,-0.259506 -20.779602,10.342941 -29.344913,12.799515c-8.690002,2.069077 -15.49033,1.680389 -21.408741,-0.647018l0,0c0.004543,0.00116 -11.96151,-12.798355 -3.397331,-23.659119l0,0z"/>
   <path fill="#a16121" fill-rule="evenodd" stroke="#000000" stroke-width="0.036" stroke-miterlimit="10" id="path9" d="m283.607666,278.702606c-0.372925,1.161377 -0.625732,3.74942 -0.247101,7.239349c0.121307,3.619141 2.13678,11.117981 1.254883,13.962006c-0.880768,2.199463 -4.406219,1.294037 -7.679993,-0.255951c-4.029877,-1.939911 -8.438354,-4.654785 -14.610687,-9.567932l0,0c4.033295,-0.389801 8.060852,-1.424347 11.587402,-3.104767c3.401855,-2.067871 6.803772,-4.652435 9.695496,-8.272705l0,0z"/>
   <path fill="#a16121" fill-rule="evenodd" stroke="#000000" stroke-width="0.036" stroke-miterlimit="10" id="path11" d="m256.784973,291.370636c0.881927,2.329712 0.881927,5.689301 -0.503296,10.602448c-1.635742,5.043457 -5.288147,15.125732 -8.058563,18.230469c-3.400742,2.454224 -7.557602,1.67807 -10.455017,-2.844055c-2.769318,-4.783997 -5.036484,-13.187012 -6.295914,-25.209229l0,0c4.660156,0.644714 8.690018,1.160248 13.098511,1.031067c4.154541,-0.126831 8.058609,-0.905365 12.214279,-1.810699l0,0z"/>
   <path fill="#a16121" fill-rule="evenodd" stroke="#000000" stroke-width="0.036" stroke-miterlimit="10" id="path13" d="m223.664093,290.856262c0.629166,4.263794 -1.13356,9.826294 -4.78595,16.675781c-3.778198,6.337494 -13.475952,21.074554 -17.505814,23.273987c-4.282654,1.93869 -6.79921,-4.007813 -7.556427,-10.342957c-0.754959,-6.853058 2.014359,-19.780518 2.518799,-27.281738c0.126968,-7.497681 -0.377472,-12.281677 -1.511063,-15.771606l0,0c4.660141,3.233917 9.193298,5.818481 14.106232,8.273926c5.036484,2.198212 9.318024,3.74826 14.734222,5.172607l0,0z"/>
   <path fill="#a16121" fill-rule="evenodd" stroke="#000000" stroke-width="0.036" stroke-miterlimit="10" id="path15" d="m186.511124,275.600159c-1.008865,3.61911 -3.274918,7.757233 -6.297028,12.926392c-3.150208,4.654785 -8.81694,16.031097 -12.217667,16.68045c-3.65242,0.386322 -6.675659,-9.307251 -9.570816,-13.575714c-3.527679,-4.783966 -6.799194,-9.437592 -10.326889,-13.962036l0,0c5.918411,-1.80954 10.957169,-2.844086 15.615021,-3.61911c4.660141,-0.904205 7.683411,-1.164856 11.966049,-0.778503c3.904037,0.129181 7.178955,0.904144 10.831329,2.328522l0,0z"/>
   <path fill="#a16121" fill-rule="evenodd" stroke="#000000" stroke-width="0.036" stroke-miterlimit="10" id="path17" d="m142.80719,282.063354c-1.761581,-0.386353 -3.524307,0.904205 -6.673355,3.878601c-2.770477,2.844116 -8.564194,8.403076 -11.083,12.671478c-2.77047,3.48999 -5.413971,7.368591 -6.548683,10.212646l0,0c5.037613,2.199402 10.075226,4.008942 14.608414,4.914276c4.785965,0.904266 10.704376,3.749451 12.971542,0.515503c1.639145,-3.61908 -2.013245,-16.54776 -2.267166,-21.849548c-0.75383,-5.689301 -0.75383,-8.662598 -1.007751,-10.342957l0,0z"/>
   <path fill="#a16121" fill-rule="evenodd" stroke="#000000" stroke-width="0.036" stroke-miterlimit="10" id="path19" d="m116.23613,312.964172c-1.889664,4.654816 -4.029854,9.567932 -5.037621,14.737091c-1.133568,5.173767 -2.518806,10.212616 -2.770462,15.645905l0,0c11.713264,-1.81073 18.765251,-4.268463 21.661552,-7.37204c2.517654,-3.875061 -2.394127,-8.533386 -4.534317,-12.408478c-2.267151,-4.008942 -5.540924,-7.372009 -9.319153,-10.602478l0,0z"/>
   <path fill="#a16121" fill-rule="evenodd" stroke="#000000" stroke-width="0.036" stroke-miterlimit="10" id="path21" d="m295.952332,354.72345c-1.008881,3.879822 -1.635773,7.497742 -3.277161,11.377502c-1.88855,3.359558 -6.168945,9.307251 -5.540894,10.857269c0.632507,1.553558 6.421661,-1.289337 10.074066,-2.067841c3.277161,-1.550049 6.301575,-3.101257 9.574219,-5.689362l0,0c-0.376343,-3.229248 -1.385254,-5.814972 -3.024414,-8.272705c-1.762695,-2.584564 -4.532013,-4.654816 -7.805817,-6.204865l0,0z"/>
   <path fill="#a16121" fill-rule="evenodd" stroke="#000000" stroke-width="0.036" stroke-miterlimit="10" id="path23" d="m269.380157,393.38031c-1.636902,0.644714 -4.281494,1.67923 -6.548645,2.585754c-2.643524,0.903015 -9.320297,0.777344 -8.814713,3.103607c0.252792,2.067902 3.777023,4.652466 10.579636,8.791718l0,0c-5.793671,-1.553558 -9.068588,-1.033386 -9.823547,1.550018c-0.756088,2.199432 1.006607,6.464386 5.288116,12.80069l0,0c3.401855,-4.267273 5.918396,-8.532227 7.557587,-13.315033c1.633453,-4.914276 1.887421,-10.088104 1.761566,-15.516754l0,0z"/>
   <path fill="#a16121" fill-rule="evenodd" stroke="#000000" stroke-width="0.036" stroke-miterlimit="10" id="path25" d="m116.486656,413.809052c-1.258278,-6.981049 -1.258278,-11.376282 0,-13.704865c1.386368,-2.716125 3.400742,-0.389832 6.549797,-0.515503c2.519943,-0.12915 5.793732,0.125671 9.320282,0.257141l0,0c-1.511063,-6.205994 -3.274902,-10.859589 -4.282669,-14.997711c-1.509926,-4.264954 -6.422829,-7.758392 -3.022095,-8.922089c3.525406,-1.160156 10.957153,-0.904144 23.297272,1.294037l0,0c-1.258255,7.757263 -3.022125,14.350708 -5.791443,19.264984c-2.897415,4.784027 -6.297012,7.628082 -10.705505,10.601318c-4.660133,2.973236 -9.320274,5.038788 -15.365639,6.722687l0,0z"/>
   <path fill="#ffc080" fill-rule="evenodd" stroke="#000000" stroke-width="0.036" stroke-miterlimit="10" id="path27" d="m108.17527,346.321564c1.511055,5.815002 2.770462,10.598969 3.778206,15.382935c0.757225,4.527954 2.141319,7.497681 1.259407,11.896484c-0.881935,3.74939 -2.895172,9.17923 -6.54641,12.79718c-3.905167,3.364258 -10.202194,5.562469 -15.995903,8.533356c-6.422852,2.717255 -14.608421,5.817352 -20.149345,8.791748c-5.793709,2.975586 -10.832466,4.525604 -13.225441,9.569122c-2.770462,4.914246 -2.897427,14.611359 -2.267155,20.039978c0,5.2995 2.392975,8.922089 4.785965,11.376343c2.14019,1.938721 7.303631,2.458862 10.20219,1.550018c3.147942,-1.679199 5.413948,-4.783936 7.303642,-8.789398c1.51104,-4.007751 1.762718,-8.922058 1.258263,-14.73938l0,0c1.638023,2.842896 2.392975,5.947662 2.771606,9.307251c0.377472,3.104736 -0.124695,6.467834 -1.008896,10.085785l0,0c2.015518,1.810699 3.778214,2.197052 6.298149,2.585724c2.140198,-0.129181 5.542076,-0.645844 7.304771,-2.067871c1.512192,-1.550049 1.635765,-3.61911 1.762718,-6.204865c0,-2.842926 -1.385223,-6.207153 -2.770462,-10.086884l0,0c2.39299,1.810699 4.155701,3.87973 5.290421,6.208282c0.880783,2.067902 1.385216,4.913116 1.007744,7.497711l0,0c2.014351,1.93988 4.156815,2.454254 6.422844,2.585754c2.141335,-0.130341 5.037621,-1.166046 6.800323,-3.104736c1.386375,-2.065613 2.77047,-6.074524 2.77047,-9.04892c-0.503311,-3.231598 -2.015495,-6.331665 -3.525414,-9.306122c-1.889679,-3.494568 -3.400734,-6.722687 -5.540924,-9.698273c-2.267159,-2.974396 -4.156837,-6.076782 -6.675644,-8.792877l0,0c3.149071,1.682709 5.793701,3.493439 7.935036,5.433289c2.015503,1.67807 3.525429,3.749451 4.533173,5.688171l0,0l2.771599,-0.260681l0,0c-1.259392,-6.336334 -1.512192,-10.341766 -1.259392,-13.445343c-0.377495,-2.974365 0.126945,-4.008942 2.517662,-4.138092c2.519951,-0.386383 7.053116,-0.130371 13.602928,1.292847l0,0c-2.770462,-6.722687 -5.415085,-11.507813 -6.548668,-15.386414c-1.259407,-4.135773 -3.525444,-5.817322 -2.014374,-7.497681c1.006622,-1.67923 3.777084,-2.454254 8.312538,-2.325073c4.658981,-0.260651 10.578537,0.515533 18.764099,1.80954l0,0c0.630249,-5.302979 0.630249,-10.472107 1.007736,-15.515564c-0.126968,-5.42865 -1.007736,-15.385223 -0.252777,-15.900787c0.503296,-0.649323 2.645767,6.074524 3.527695,11.247162c0.377487,4.782837 0.377487,10.472076 -0.504456,17.581146l0,0c1.636887,2.069061 4.660141,3.878601 9.06749,5.947632c4.408478,1.550018 10.075241,3.878601 17.506973,5.42865c7.176666,1.035645 18.00914,2.458923 25.185822,2.713715c6.927292,0 10.454971,-0.903015 15.492599,-2.194672c4.407333,-1.554749 8.43721,-3.104767 11.586288,-5.688171l0,0c2.267166,3.48877 4.029861,7.238159 4.784851,11.245941c0.881912,4.008942 2.016632,7.758362 0,12.671539c-2.390717,4.655945 -10.074142,9.823914 -14.356766,15.512085c-5.037628,5.172607 -10.579681,10.473297 -13.22319,15.906525c-2.39183,5.167999 -3.400726,9.692474 -2.519943,14.995453c0.377472,4.915466 2.267166,11.763824 5.163452,15.642426c2.771606,3.492218 7.683365,5.817352 11.33577,6.466675c3.022095,0.386322 6.424011,-0.649323 8.312515,-2.588104c1.635757,-2.325043 2.392975,-6.593475 2.267166,-9.823883c-0.377502,-3.62265 -2.140198,-6.466705 -4.78598,-9.955475l0,0c3.527695,1.033386 6.675644,3.102417 8.060867,5.688141c1.258286,2.585754 2.140213,5.817352 1.258286,9.697113l0,0c3.401871,2.326202 6.297012,3.61911 9.193298,3.878571c2.771591,-0.25946 5.543213,-1.552368 7.304749,-3.363037c1.26059,-1.939911 2.142502,-4.910828 1.26059,-7.497711c-0.756073,-2.585724 -3.274918,-5.819672 -6.548676,-8.662598l0,0c2.265991,-0.125671 4.281525,0.388733 6.045319,1.553528c1.635773,1.160248 2.644669,2.455414 3.524307,4.913177l0,0c4.155731,1.161377 7.430603,0.645874 9.824738,-1.553528c2.266022,-2.584595 4.282654,-8.272736 4.029877,-11.635834c-0.754944,-3.360779 -4.407349,-7.109009 -7.052002,-8.789398c-2.646881,-2.199402 -5.163452,-4.008942 -9.57193,-3.878601c-4.788223,-0.130341 -10.956009,0.644684 -18.51358,2.842926l0,0c0.630264,-1.292877 2.142441,-2.328552 4.533157,-3.103577c2.267166,-1.034515 6.548706,-1.80954 9.446106,-2.329742c2.643524,-0.903076 4.660172,-1.67804 6.548721,-2.325073l0,0c-2.89743,-4.006592 -4.911819,-7.496521 -5.540955,-9.956604c-0.757233,-2.970917 -0.503296,-5.038818 0.75499,-6.202515c0.879608,-1.424347 1.888535,-1.94104 4.029831,-1.551178l0,0c-3.65239,-2.844055 -5.4151,-4.914307 -5.792587,-6.722687c-0.377472,-1.683868 0.377487,-2.718384 3.779327,-3.62262c3.273788,-1.291687 8.311417,-2.844055 15.615067,-4.135742l0,0c-0.880798,-8.147064 -0.125854,-14.73941 2.267151,-21.204926c2.015503,-6.593475 7.935028,-11.635773 11.457062,-16.550079c3.025543,-4.910797 5.542053,-8.014343 8.059753,-13.312714c2.64801,-6.336334 5.667908,-14.74054 7.557556,-21.204895c1.133575,-6.208344 0.252777,-11.506622 1.259399,-15.386383c0.881927,-4.138123 3.273743,-6.078033 5.793701,-8.792908c2.391876,-2.842926 5.669006,-5.42865 9.822449,-7.757202l0,0l-22.164825,-16.676971l0,0c-0.755005,1.164886 -1.509918,2.455444 -2.771576,3.878601c-1.260559,1.294037 -2.517731,2.714905 -4.280426,4.264954l0,0c-0.251648,4.397614 -0.251648,8.277405 0,12.155975c0.250519,3.35965 1.384094,8.143524 1.008911,10.342926c-0.880829,2.067932 -2.770477,3.100128 -5.667908,3.100128c-3.274872,-0.256012 -9.569641,-2.970886 -13.097382,-4.653625c-3.905121,-2.065582 -6.298096,-4.135742 -8.564117,-6.722687l0,0c-0.126953,4.782776 -0.881958,9.31076 -2.268311,15.000061c-1.635773,5.299469 -3.651245,14.091217 -6.547516,17.450806c-3.400757,2.974426 -8.943954,2.329712 -12.216583,1.035675c-3.652374,-1.550018 -5.289291,-4.914276 -7.305908,-10.082245c-2.013245,-5.55899 -3.524307,-13.187042 -4.533173,-22.885284l0,0c-4.533173,14.737061 -9.06749,25.72818 -14.103958,32.967529c-5.290436,7.112518 -12.468246,9.956635 -16.247589,10.086945c-4.155701,-0.389832 -5.540924,-5.689331 -6.549805,-11.376343c-0.880783,-6.208252 -0.251663,-15.905365 0.505569,-23.663757c0.125839,-7.882843 0.628006,-15.641266 1.007751,-23.270447l0,0l-3.024368,-1.034515l0,0c-2.391861,7.758362 -5.163467,14.222717 -8.815842,19.909698c-4.029877,5.818481 -9.319138,12.672638 -12.971527,13.575653c-3.526566,0 -5.792572,-6.077911 -8.815842,-10.731598c-3.399597,-4.653595 -7.431702,-10.083405 -11.587402,-16.806122l0,0c-0.754959,1.93988 -0.503311,5.299469 0.252777,10.602478c0.377487,5.428619 4.155685,15.771576 4.029877,20.555511c0.125809,4.007813 -0.251648,5.42868 -4.534302,5.688202c-4.785965,0.13031 -12.721024,-1.424347 -23.802887,-4.653595l0,0c3.526566,2.585693 6.548691,5.68811 8.565308,9.30719c1.762726,3.233917 4.155716,7.758392 3.274918,11.117981c-1.764999,3.104736 -5.29039,5.69043 -10.077507,7.758331c-4.534302,1.808411 -10.075233,2.973267 -16.623901,3.493439l0,0z"/>
   <path fill="#a16121" fill-rule="evenodd" stroke="#000000" stroke-width="0.036" stroke-miterlimit="10" id="path29" d="m115.982216,302.361725c3.905182,-6.207153 7.935036,-11.506622 12.594048,-15.900757c4.282654,-4.783966 9.193298,-8.662537 14.230927,-11.636993l0,0l-4.533188,-7.241669l0,0c-5.791443,-0.774994 -11.208794,-1.035675 -16.749725,0.259491c-5.666756,1.034515 -11.20768,3.103607 -16.625061,6.207184l0,0c1.008896,3.876282 2.267151,8.272705 4.282669,13.187042c1.763847,4.524445 4.029861,9.566742 6.800331,15.125702l0,0z"/>
   <path fill="#ffc080" fill-rule="evenodd" stroke="#000000" stroke-width="0.036" stroke-miterlimit="10" id="path31" d="m104.648705,269.651337c2.64463,-1.80954 6.673386,-3.360748 12.090736,-4.135773c5.413963,-1.034515 11.836823,-1.294006 19.771851,-1.294006l0,0c-1.132446,-1.939911 -1.511047,-4.007782 -2.140182,-5.688141c-0.756119,-1.81073 -0.756119,-3.749451 -1.008881,-5.302963l0,0c-2.518829,-2.325073 -5.290421,-4.909683 -8.312531,-6.719208c-3.274902,-2.328568 -6.548676,-4.397629 -10.326881,-5.690491c-4.156837,-1.292862 -7.557571,-1.552368 -12.090752,-1.292862l0,0c-1.008865,5.948807 -1.889664,10.858459 -1.259392,16.161423c0.505569,4.913132 1.135841,9.567947 3.276031,13.962021l0,0z"/>
   <path fill="#a16121" fill-rule="evenodd" stroke="#000000" stroke-width="0.036" stroke-miterlimit="10" id="path33" d="m104.144272,234.614761c0.631393,-2.197067 1.133575,-5.42981 2.01548,-8.27272c0.628021,-3.491089 1.636887,-6.594681 2.517693,-10.731628l0,0c2.518806,1.034531 5.793694,2.974426 9.320267,5.818512c3.778206,2.844055 7.17894,5.818481 12.090729,10.342926l0,0c0,3.360764 -0.252777,6.205994 0.251648,9.050064c0.252808,2.586914 0.756119,4.911987 1.511093,6.981033l0,0c-3.902924,-4.524445 -7.933929,-7.628052 -12.594055,-9.825104c-4.784843,-2.198212 -9.822456,-3.492249 -15.112854,-3.363083l0,0z"/>
   <path fill="#ffc080" fill-rule="evenodd" stroke="#000000" stroke-width="0.036" stroke-miterlimit="10" id="path35" d="m130.340088,227.11705c-2.014343,-2.714905 -4.534294,-4.65477 -8.059723,-7.241684c-3.65239,-2.584564 -7.935043,-5.041122 -12.845695,-7.368546l0,0l2.014374,-8.27504l0,0c4.281517,-2.327377 8.815826,-3.619095 13.601791,-4.395294c4.911797,-0.774994 9.570793,-1.03334 14.987038,-0.258331l0,0c-2.896301,6.076828 -5.289291,11.247147 -6.674515,16.031097c-1.638031,4.783966 -2.644638,8.145874 -3.02327,11.507797l0,0z"/>
   <path fill="#a16121" fill-rule="evenodd" stroke="#000000" stroke-width="0.036" stroke-miterlimit="10" id="path37" d="m112.709587,199.578156c2.770462,-1.809555 6.547539,-3.361923 11.333481,-4.139252c4.534309,-0.775055 10.202202,-1.291718 16.498085,-1.032211l0,0c2.519958,-6.075668 4.031021,-10.601273 5.540955,-14.609055c1.008881,-4.008942 2.016617,-6.853027 2.016617,-9.052414l0,0c-5.415115,-0.258331 -11.082993,0.516693 -16.498093,2.846405c-5.540924,2.327408 -11.335762,5.55899 -16.876694,10.729309l0,0c-0.630272,2.070206 -0.503304,4.396439 -1.007744,6.982162c-0.629135,2.327393 -0.504448,5.431 -1.006607,8.275055l0,0z"/>
   <path fill="#ffc080" fill-rule="evenodd" stroke="#000000" stroke-width="0.036" stroke-miterlimit="10" id="path39" d="m115.227249,177.599411c3.400726,-3.878601 7.683388,-6.723846 13.349014,-8.533386c5.416229,-1.809555 12.090729,-3.102417 20.024628,-2.84407l0,0c1.386383,-3.231598 1.386383,-6.463181 0,-10.212616c-1.511047,-3.750626 -4.78595,-7.628036 -9.319122,-11.636978l0,0c-6.172318,-0.257202 -11.334663,1.292862 -15.994781,5.171478c-5.036484,4.007751 -8.564171,9.17923 -12.090736,17.45314l0,0c1.386368,1.681519 2.64463,3.491074 3.274887,5.430954c0.5056,1.80957 0.756111,3.360764 0.756111,5.171478l0,0z"/>
   <path fill="#a16121" fill-rule="evenodd" stroke="#000000" stroke-width="0.036" stroke-miterlimit="10" id="path41" d="m109.434669,164.024872c0,-0.517853 -0.504456,-1.034515 -2.015503,-2.069046c-1.511055,-1.035675 -4.029877,-2.070221 -7.05426,-3.620285l0,0c1.512207,-5.688126 2.015518,-11.11911 2.015518,-16.290588c-0.125839,-5.300644 -1.258293,-10.21492 -2.897423,-15.256088l0,0c5.290398,-0.130325 9.950523,0.90538 14.483711,2.069077c4.155693,1.291687 8.18557,3.101257 11.586296,5.428635c3.022125,1.682709 6.045364,3.491104 8.059738,5.431l0,0c-5.037613,0.645844 -8.941673,3.619095 -13.097351,7.497696c-4.15345,3.75058 -7.681137,9.826248 -11.080727,16.809601l0,0z"/>
   <path fill="#ffc080" fill-rule="evenodd" stroke="#000000" stroke-width="0.036" stroke-miterlimit="10" id="path43" d="m96.21035,157.301041c1.511055,-2.71608 2.518814,-6.33519 2.518814,-11.377472c-0.252777,-5.431 -1.007759,-11.249481 -2.77047,-19.004349l0,0c-5.793701,0.51667 -10.326889,1.162521 -13.601776,1.939865c-3.400742,0.387543 -5.919563,1.550064 -7.05426,2.066742l0,0c-1.888542,2.71608 -3.147942,6.077988 -3.778214,10.08461c-0.881935,3.878601 -0.629135,9.697083 -0.251671,13.446518c0.251671,3.361923 1.007759,5.945313 2.267159,7.240509l0,0c5.037621,-3.361923 9.067497,-4.783951 13.098495,-5.688126c3.526566,-1.034531 7.05426,-0.130356 9.571922,1.291702l0,0z"/>
   <path fill="#a16121" fill-rule="evenodd" stroke="#000000" stroke-width="0.036" stroke-miterlimit="10" id="path45" d="m72.028885,131.185333c-3.399612,2.974411 -5.415092,7.368546 -5.542053,12.669159c-0.377495,5.301819 1.134705,11.507828 4.03212,19.135864l0,0c-5.037613,3.491089 -9.320271,5.688141 -14.7365,6.593506c-5.540928,0.776184 -13.096218,0.776184 -16.371128,-1.551193c-3.527691,-2.974426 -5.037617,-9.437592 -3.527691,-13.834045c1.007751,-4.524475 5.542061,-8.403061 11.587429,-12.152512c6.171192,-3.879761 13.853455,-7.498856 24.557823,-10.860779l0,0z"/>
   <path fill="#ffc080" fill-rule="evenodd" stroke="#000000" stroke-width="0.036" stroke-miterlimit="10" id="path47" d="m191.044296,389.242218l2.519958,6.078003l0,0c-5.037628,2.714905 -8.815842,5.300659 -11.335785,7.758362c-2.896301,2.454254 -4.407349,4.394135 -5.037613,6.332825l0,0c4.156815,-3.358398 7.683395,-6.592316 11.081848,-8.272675c2.897415,-2.328583 5.543198,-3.750671 7.935043,-3.750671c2.394119,-0.12796 4.282639,0.776245 6.172302,2.716125c1.258286,1.164886 2.897461,4.007782 3.399612,6.464325c0.126968,2.199402 -0.250519,6.336334 -1.635727,7.887543c-1.636932,1.67804 -4.156815,1.550079 -7.557571,1.034546l0,0c-0.377487,-1.680389 -0.880798,-3.233917 -1.509933,-4.140442c-0.880798,-1.289398 -1.764984,-2.067902 -3.150208,-2.325073l0,0c1.260529,3.360779 1.889679,6.205994 2.39299,8.533417c0.125809,1.810669 0,3.360748 -0.377502,5.170258c-1.13356,1.808411 -1.888519,3.878662 -3.652374,5.688202c-1.385239,1.035675 -3.778214,2.067871 -5.793701,2.067871l0,0c-0.377502,-2.713745 -0.880814,-5.172638 -1.509933,-6.851868c-0.631409,-1.810699 -1.763855,-3.360748 -2.89743,-4.135773l0,0c1.386368,5.299469 1.511063,9.308441 0.377487,12.022186c-1.132431,2.455383 -4.660141,4.139252 -7.176666,4.008942c-3.274918,-0.388702 -7.557571,-3.61911 -9.446106,-6.208344c-1.889679,-3.360779 -2.267151,-7.497711 -1.636887,-10.858459c-0.125824,-3.621429 2.267166,-5.946472 3.274902,-9.051239c0.62915,-3.103607 2.141312,-5.817352 2.518814,-9.566742c0.252777,-4.135834 0.252777,-9.178101 0,-15.126923l0,0c4.785965,1.424408 8.942764,2.328552 12.972656,3.232758c3.647858,0.776154 7.175537,1.035706 10.071823,1.292847l0,0z"/>
   <path fill="#ffc080" fill-rule="evenodd" stroke="#000000" stroke-width="0.036" stroke-miterlimit="10" id="path49" d="m290.410278,349.811523c-2.394135,2.199371 -4.533173,4.913086 -6.927307,8.143555c-2.642334,2.974396 -5.664429,6.722656 -7.175507,10.216064c-1.890808,3.229248 -2.771606,6.203674 -3.149109,9.436432c-0.630249,2.845245 -0.502136,5.945313 -0.124664,8.789459l0,0c4.78595,0.388641 8.687714,1.93866 11.709839,4.139221c2.770477,2.199402 5.162323,4.782806 5.793701,9.697113c0.250549,4.394104 -2.392975,11.376251 -3.147949,17.450806c-1.135834,5.689301 -3.780457,12.93219 -2.143555,17.195953c1.767242,4.008942 7.937256,6.337463 12.216553,6.983368c4.283783,0.258331 7.936188,-0.260681 11.964905,-2.974426c3.023254,-2.845245 6.928406,-8.144745 8.311371,-12.412048c1.008911,-4.654755 0.881958,-9.697083 -0.880737,-13.057831c-1.763885,-3.489929 -4.908447,-5.042267 -9.446136,-6.077972l0,0c3.276031,-1.550049 6.047638,-1.810699 8.314789,-0.775024c2.012085,0.775024 3.52655,2.974426 4.533173,6.078033c0.754974,2.585693 1.131317,6.074463 0.63028,10.472046l0,0c2.264893,1.035706 4.78598,1.164886 7.050842,0.386383c2.395264,-0.775024 5.16571,-3.489929 6.802582,-5.689331c0.880829,-2.974457 0.754974,-6.593536 0.125854,-9.822784c-0.880798,-3.494568 -2.268311,-6.983307 -4.659027,-8.922089c-2.51767,-1.93985 -5.921783,-2.845184 -10.201019,-2.714874l0,0c2.390686,-1.035706 4.533142,-1.550018 6.923859,-1.035706c2.142456,0.260651 4.157959,1.164886 6.046478,2.714935c1.635773,1.294037 2.644684,3.103577 3.526581,5.42865l0,0c2.769318,-2.325073 3.902893,-4.909698 3.398499,-7.753754c-0.629181,-3.364227 -3.525482,-8.533356 -6.295929,-10.601257c-3.399567,-1.93988 -7.051971,-2.458923 -10.957153,-1.553558c-4.153412,0 -8.437225,1.292908 -12.343506,4.396484c-3.778259,3.100067 -7.430603,8.015533 -10.45047,14.737061l0,0c-0.126923,-3.229248 0.879669,-6.332855 2.518829,-9.307251c1.634613,-3.104736 4.153381,-6.079132 7.555298,-8.922119l0,0c-0.378632,-2.845184 -0.632538,-5.558929 -0.754974,-7.628021c-0.504425,-2.455353 -0.880768,-4.395294 -1.133575,-5.816101l0,0c-5.920685,3.61908 -10.326904,5.944153 -14.233215,7.497681c-3.905182,1.550049 -7.93277,1.680359 -8.687744,0.905334c-1.260529,-1.680389 0.754974,-5.818481 2.139099,-8.922058c0.754913,-3.360779 3.652374,-6.983337 4.78595,-9.827423c1.135803,-2.713776 1.636871,-5.689301 2.015503,-7.497711l0,0c-0.754974,-0.385193 -1.387512,-1.420837 -1.88855,-1.679199c-0.881927,-0.385193 -1.008911,-1.419708 -1.763855,-1.67804l0,0z"/>
   <path fill-rule="evenodd" stroke="#000000" stroke-width="0.036" stroke-miterlimit="10" id="path51" d="m84.622925,119.291199c0.377495,1.551186 1.13472,2.327393 1.763847,4.783951c0.630272,1.80954 1.133583,5.946503 2.015495,7.497696c0.881927,1.292862 1.636894,2.198212 2.267159,1.162537c0,-1.937561 -0.125832,-6.33284 -0.880791,-9.694771c-1.134712,-3.491089 -3.400742,-7.88636 -4.407341,-9.180412c-1.638023,-1.29287 -2.772743,0.38752 -2.897423,1.551208c-0.504448,0.775024 1.511055,2.069061 2.139053,3.879791l0,0z"/>
   <path fill-rule="evenodd" stroke="#000000" stroke-width="0.036" stroke-miterlimit="10" id="path53" d="m77.446251,120.325714c0.377472,1.162529 0.880783,2.066727 1.509926,4.136932c0.379745,1.680374 1.134705,5.042313 1.764977,6.593506c0.754959,1.034515 1.259415,2.197067 2.014374,1.034515c0,-1.422012 -0.251656,-5.947647 -0.754959,-8.533379c-1.133583,-2.974403 -2.897423,-6.983345 -3.90519,-8.015533c-1.509918,-0.905365 -2.517662,0.257164 -2.517662,1.422035c-0.253937,0.645851 1.006599,1.939888 1.888535,3.361923l0,0z"/>
   <path fill-rule="evenodd" stroke="#000000" stroke-width="0.036" stroke-miterlimit="10" id="path55" d="m93.312935,252.070221c1.385223,-0.649323 2.519943,-0.90535 4.787094,-1.294022c1.638023,-0.515518 6.045364,-0.90535 7.430603,-1.164871c1.385223,-0.775024 2.518806,-1.680374 1.385223,-2.194733c-1.511047,-0.519012 -6.422844,-0.90535 -9.446083,-0.130341c-3.525452,0.905365 -7.932777,1.550049 -9.318016,3.360779c-1.260536,0.775024 -0.252792,2.84407 1.132439,3.232742c0.503311,0.259491 2.643501,-1.680374 4.02874,-1.809555l0,0z"/>
   <path fill-rule="evenodd" stroke="#000000" stroke-width="0.036" stroke-miterlimit="10" id="path57" d="m93.439888,259.567932c1.133583,-0.519012 2.39299,-0.904205 4.282661,-1.163696c1.762703,-0.515533 4.911797,-0.644684 6.548683,-0.905365c1.259399,-0.774994 2.14019,-1.809555 1.259399,-2.069046c-1.763855,-0.644684 -5.542068,-0.515533 -8.439499,-0.129181c-2.895134,0.519012 -7.177811,1.552383 -8.058594,3.103592c-0.881927,0.775024 -0.379753,2.328522 1.005493,2.714905c0.630272,-0.00116 1.764977,-1.166016 3.401855,-1.551208l0,0z"/>
   <path fill-rule="evenodd" stroke="#000000" stroke-width="0.036" stroke-miterlimit="10" id="path59" d="m296.83313,317.359497c1.134735,0.129181 2.770508,0 4.912933,0.645844c2.012085,0.259521 5.4151,1.292877 7.30365,1.682678c1.257111,-0.259491 3.273773,-0.778503 2.139038,-1.553528c-1.257111,-1.164825 -5.790283,-3.103577 -8.812408,-3.749451c-3.400757,-0.775024 -8.31366,-1.035675 -9.823639,-0.260681c-2.015472,0.649353 -0.884155,2.458923 0,3.493469c1.004395,0.387512 2.266052,-0.387512 4.280426,-0.258331l0,0z"/>
   <path fill-rule="evenodd" stroke="#000000" stroke-width="0.036" stroke-miterlimit="10" id="path61" d="m294.316559,324.471985c1.007782,-0.260681 2.644684,0.254852 4.40741,0.514374c1.889648,0.260651 4.533142,1.294006 6.422791,1.550018c1.133606,-0.12915 2.897461,-0.775024 1.88855,-1.420868c-1.006592,-1.164856 -5.413971,-2.585693 -7.809174,-3.233887c-3.14682,-0.514374 -7.178955,-0.775055 -8.688904,-0.256012c-1.761536,0.126862 -0.632538,2.455383 0,2.972046c0.376373,-0.125671 2.264893,0.00116 3.779327,-0.125671l0,0z"/>
   <path fill-rule="evenodd" stroke="#000000" stroke-width="0.036" stroke-miterlimit="10" id="path63" d="m332.223419,383.037354c0.63028,-0.902985 2.390717,-2.454193 3.905182,-3.231537c1.635773,-1.291748 5.03421,-3.360748 6.297028,-4.266113c1.131287,-1.163696 1.384064,-3.232758 0.24826,-2.713776c-1.634644,0.515564 -6.295898,1.67926 -8.686615,4.005463c-2.89743,1.813019 -6.172333,5.56131 -6.928406,7.24173c-1.007782,1.420837 1.38858,2.199402 2.395203,2.325043c0.502228,-0.387512 1.761627,-2.326263 2.769348,-3.360809l0,0z"/>
   <path fill-rule="evenodd" stroke="#000000" stroke-width="0.036" stroke-miterlimit="10" id="path65" d="m335.497192,389.76123c0.632507,-0.776154 1.763855,-2.2005 3.399597,-2.844055c1.63913,-1.164886 4.157959,-3.104767 5.540924,-3.74942c1.008881,-1.294067 1.261688,-2.585785 0.253906,-2.329773c-1.255981,0.260681 -5.542053,1.424377 -7.557526,3.494598c-2.892883,1.80957 -5.288147,4.392944 -6.168945,6.333984c-0.881927,1.419708 1.134705,1.938751 2.141327,2.067902c0.375214,-0.259491 1.508789,-2.067902 2.390717,-2.973236l0,0z"/>
   <path fill-rule="evenodd" stroke="#000000" stroke-width="0.036" stroke-miterlimit="10" id="path67" d="m70.896423,395.579712c0.880806,1.033356 2.013237,1.80835 3.399612,3.749451c1.385239,1.290527 3.150215,4.914307 4.785965,5.947662c1.134712,0.904175 2.644646,1.420837 2.644646,0.126831c-0.62915,-1.94104 -2.644646,-5.945313 -4.660149,-8.534576c-2.014374,-2.844055 -6.295891,-5.688141 -7.555283,-6.463165c-1.889679,-0.774994 -2.267151,1.424347 -2.142464,2.585754c-0.250526,0.777313 2.519936,1.294006 3.527672,2.588043l0,0z"/>
   <path fill-rule="evenodd" stroke="#000000" stroke-width="0.036" stroke-miterlimit="10" id="path69" d="m64.72525,399.587524c0.756088,0.774994 1.762703,1.680359 3.023239,3.230408c1.132454,1.552338 2.644646,4.008911 4.02874,5.302948c1.132431,0.775024 2.267151,1.160217 2.392967,0.125702c-0.630264,-1.419739 -2.141312,-5.42865 -4.030998,-7.49884c-1.887398,-2.584625 -5.413948,-5.16803 -6.673363,-5.817383c-1.511051,-0.645844 -2.142456,1.292908 -1.889664,2.328552c0.001125,0.515533 2.016624,1.295227 3.149078,2.328613l0,0z"/>
   <path fill-rule="evenodd" stroke="#000000" stroke-width="0.036" stroke-miterlimit="10" id="path71" d="m411.564789,124.073982c2.269409,-3.361916 7.05307,-6.593513 14.360138,-9.697098c7.304779,-3.361916 18.762939,-7.110184 29.089874,-9.180412c9.573059,-2.455383 21.03125,-2.972076 29.596588,-3.489922c8.689972,-0.777351 15.113922,-0.516678 21.157104,0.258347c5.41391,0.259499 9.446045,-0.128006 12.0896,2.844063c2.645752,2.456566 3.150146,6.593513 2.897339,13.83403c-0.754883,7.240547 -3.398438,18.747177 -6.041992,29.090118c-2.89856,9.825104 -7.430481,20.945389 -10.706635,29.866302c-4.028656,8.14473 -7.303558,15.125732 -10.831299,19.909698c-3.777069,4.526794 -5.793671,7.240509 -9.947083,8.145874c-4.15799,0.647018 -9.320313,-0.905365 -14.98819,-4.136932l0,0c-1.635773,-16.161438 -7.177826,-29.995483 -16.623932,-43.053329c-9.825836,-12.928665 -22.671539,-24.565643 -40.051514,-34.390739l0,0z"/>
   <path fill="#ffc080" fill-rule="evenodd" stroke="#000000" stroke-width="0.036" stroke-miterlimit="10" id="path73" d="m415.598053,123.557289c2.264893,-1.80954 5.288147,-3.749428 8.56192,-5.301804c3.276001,-1.809547 6.800293,-3.231583 11.081818,-4.782784l0,0c1.008881,0.51667 2.646912,1.681549 4.911774,3.491089c2.26944,1.809547 5.038757,3.878593 8.819275,6.722679l0,0c-3.025543,-0.259514 -6.301605,1.033363 -9.321442,2.455383c-3.277161,1.294037 -6.675659,4.138115 -10.202179,7.110222l0,0c-3.652405,-2.584595 -7.180054,-4.6548 -9.192139,-6.206017c-2.141357,-1.679207 -4.15799,-2.842903 -4.659027,-3.48877l0,0z"/>
   <path fill="#a16121" fill-rule="evenodd" stroke="#000000" stroke-width="0.036" stroke-miterlimit="10" id="path75" d="m461.565704,105.843491c-5.79483,1.552376 -10.076355,2.456566 -14.233185,3.749428c-4.154572,1.034531 -7.430603,1.939888 -9.822449,2.714912l0,0c1.88855,0.906532 4.031006,2.456566 6.422882,4.138107c2.394104,1.551208 4.912903,3.749451 8.059723,6.075668l0,0c0.879639,-0.387527 2.014343,-0.647011 3.401855,-0.775024c1.130188,-0.130333 2.643494,-0.905357 4.028748,-0.905357l0,0c0.252777,-3.103569 0.378601,-6.4655 0.879639,-8.662567c0.379761,-2.325058 0.632538,-4.911957 1.262787,-6.335167l0,0z"/>
   <path fill="#ffc080" fill-rule="evenodd" stroke="#000000" stroke-width="0.036" stroke-miterlimit="10" id="path77" d="m470.505127,104.810127c-1.763855,0 -3.399628,0.130341 -4.407349,0.38752c-1.385254,-0.128006 -2.266052,0.517845 -2.644653,0.517845l0,0c-0.378601,1.551208 -0.880798,3.74826 -1.008881,6.077995c-0.375214,2.327385 -0.375214,4.911964 -0.501038,7.756035l0,0c2.644653,-0.517845 4.660126,-0.645844 7.052002,-0.905365c1.888519,-0.387497 3.652344,-0.387497 5.793701,-0.516663c2.139069,-0.258362 4.407349,-0.127998 7.303619,-0.127998l0,0c-1.00885,-1.939896 -3.023254,-4.008957 -4.660095,-6.206009c-1.761627,-2.199394 -4.532104,-4.526787 -6.927307,-6.98336l0,0z"/>
   <path fill="#a16121" fill-rule="evenodd" stroke="#000000" stroke-width="0.036" stroke-miterlimit="10" id="path79" d="m473.908112,104.422623c3.272614,-0.647011 6.672241,-1.034523 11.208801,-1.163696c4.153412,-0.128014 10.577362,0 14.482544,0.388672c3.271606,0 6.169037,0.387512 8.185638,0.645851c2.142426,0.129173 4.030975,0.647018 5.666748,1.034538l0,0c-3.271484,1.034515 -6.167877,2.456558 -9.193298,3.748253c-3.14801,1.164871 -6.167786,2.71608 -8.56427,4.139282c-2.770386,1.162537 -5.035278,4.13694 -6.295837,4.911972c-1.511047,0.904182 -1.889648,0.387489 -2.644623,-0.127998c-1.260529,-1.163712 -2.770477,-3.491112 -4.033264,-4.913147c-1.761597,-1.681549 -2.769348,-2.974411 -4.406219,-4.396439c-1.761566,-1.553543 -2.769318,-2.975594 -4.406219,-4.267288l0,0z"/>
   <path fill="#ffc080" fill-rule="evenodd" stroke="#000000" stroke-width="0.036" stroke-miterlimit="10" id="path81" d="m515.468445,106.748848c-3.404114,0.905365 -6.675629,2.199394 -9.321411,3.361931c-3.023193,0.905357 -5.542053,1.939873 -7.556366,3.619087c-2.267212,1.424385 -4.280396,3.103592 -6.04422,5.043472l0,0c2.139008,0.257172 4.15567,0.904182 5.543152,1.42205c1.129089,0.258316 1.761566,1.034508 2.390686,2.327385c0.501038,0.905365 0.879669,2.974388 1.133575,4.783958c0.250549,1.679199 -0.125732,3.619095 -0.125732,5.817307l0,0c1.889557,-2.198212 3.52533,-3.878601 5.41394,-5.042297c1.636841,-1.162521 3.150177,-2.585732 5.038696,-2.845245c1.763824,-0.904182 3.399628,-1.162514 5.415131,-1.291695l0,0c0.880798,-5.042297 1.384094,-8.533394 1.008911,-11.507805c-0.251709,-3.101234 -1.385254,-4.65361 -2.896362,-5.688148l0,0z"/>
   <path fill="#a16121" fill-rule="evenodd" stroke="#000000" stroke-width="0.036" stroke-miterlimit="10" id="path83" d="m517.104309,126.01387c-3.022278,0.774994 -5.288239,1.80954 -8.185638,3.61908c-2.517731,1.809555 -5.666718,3.878616 -8.058685,6.722687l0,0c-0.504425,1.679214 -0.880707,3.61911 -1.133545,5.300644c-0.253906,1.550049 -1.134705,3.231583 -1.261627,5.041122l0,0c2.142456,2.845261 3.779297,5.171478 5.41507,7.498886c1.387482,2.199402 2.771667,4.396439 3.652435,6.077988l0,0c2.016602,-6.205978 3.778198,-10.861954 5.292572,-15.386414c1.382996,-4.396439 2.264954,-7.758377 3.145813,-10.602432c0.631348,-2.969772 1.00885,-6.20369 1.133606,-8.271561l0,0z"/>
   <path fill="#ffc080" fill-rule="evenodd" stroke="#000000" stroke-width="0.036" stroke-miterlimit="10" id="path85" d="m506.903076,162.212997l-3.778107,9.956589l0,0c-2.264984,0.126862 -4.153473,0.387527 -6.675629,0.775024c-2.264954,0.387512 -5.162384,0.129166 -7.680023,0.647018l0,0c2.390686,-5.043457 4.154572,-9.30957 5.791382,-13.316193c1.387482,-4.138092 2.646912,-7.758377 3.276154,-10.861938l0,0c1.889587,2.456543 3.652283,4.783951 5.288116,6.982193c1.386292,2.069031 2.644531,4.007751 3.778107,5.817307l0,0z"/>
   <path fill="#a16121" fill-rule="evenodd" stroke="#000000" stroke-width="0.036" stroke-miterlimit="10" id="path87" d="m502.622711,174.237503c-1.640198,2.84407 -3.150177,6.076828 -4.533112,9.180389c-1.766144,2.84407 -3.779327,6.981033 -5.038788,9.437576c-1.636902,1.80957 -2.142487,3.361938 -3.400726,4.653641c-1.259369,1.422028 -3.149048,2.586884 -4.658966,4.008942l0,0l-5.038757,-13.575699l0,0c1.635742,-2.067886 3.150177,-4.267273 4.533142,-6.076828c1.133575,-1.938721 2.142487,-3.491104 3.024384,-5.170303l0,0c2.014374,-0.130341 4.279297,-0.387527 6.801453,-0.775024c2.5177,-0.648178 5.288116,-1.036865 8.311371,-1.682693l0,0z"/>
   <path fill="#ffc080" fill-rule="evenodd" stroke="#000000" stroke-width="0.036" stroke-miterlimit="10" id="path89" d="m477.93573,188.718552c-0.755005,0.644684 -2.012115,0.775009 -3.778229,0.904175c-1.763855,-0.129166 -4.028717,-0.516678 -6.798065,-1.164856l0,0c0.501068,1.93988 1.382965,4.139267 1.635773,6.076813c0.124695,1.810715 0.62912,3.878616 0.501038,5.688156l0,0c1.387482,1.294037 3.024353,1.939911 5.418488,2.456573c2.139038,0.130341 4.782562,0 7.9328,-0.387497l0,0c-1.88858,-4.396469 -3.023285,-7.885223 -3.905212,-9.955444c-0.753815,-2.455399 -1.256012,-3.489914 -1.006592,-3.61792l0,0z"/>
   <path fill="#a16121" fill-rule="evenodd" stroke="#000000" stroke-width="0.036" stroke-miterlimit="10" id="path91" d="m466.604462,185.356613c3.273773,0.645859 5.540955,1.292862 8.185577,0.517853c2.015503,-0.647018 3.273773,-1.164871 5.790314,-4.008942c2.522186,-3.231583 5.291534,-8.790573 8.314758,-14.220383c2.391846,-5.818497 5.163422,-12.152512 6.925079,-18.487656c1.636841,-6.981049 3.276001,-14.869751 3.398499,-19.652527c-0.122498,-4.52446 -1.509979,-5.688156 -4.153534,-6.981026c-2.769318,-1.680367 -6.801422,-2.197052 -12.090668,-2.069046c-5.288177,-0.258347 -13.600677,0.51667 -19.647156,1.80954c-6.802612,1.164864 -14.232086,3.103577 -18.387787,4.783958c-4.406189,1.294022 -4.032135,1.939865 -6.168884,3.361938c-2.26944,1.034515 -4.283844,2.456558 -6.548706,3.75058l0,0c4.78595,4.136932 9.319122,8.403046 13.600647,12.79834c4.15683,4.395294 7.682251,7.628036 11.081848,12.670349c3.150208,4.654785 5.920654,10.730453 7.809235,15.256073c1.509918,4.135773 2.140198,7.626877 1.890778,10.470947l0,0z"/>
   <path fill-rule="evenodd" stroke="#000000" stroke-width="0.036" stroke-miterlimit="10" id="path93" d="m462.825104,104.551796c-0.37973,-1.552368 -0.632507,-3.749435 -0.754944,-5.171471c-0.504456,-2.069061 -0.884186,-3.878601 -1.134705,-4.913139c-1.133575,-1.163696 -1.512177,-0.775017 -2.142456,-0.257172c-0.501038,0.387512 -0.501038,0.387512 0,2.972084c0.126953,2.456566 0.502167,9.309578 1.134705,11.506638c0.754974,1.552376 1.636902,0.259506 2.644623,-0.387512c0.37973,-0.905357 0.126953,-2.327385 0.252777,-3.749428l0,0z"/>
   <path fill-rule="evenodd" stroke="#000000" stroke-width="0.036" stroke-miterlimit="10" id="path95" d="m456.524719,103.386925c-0.879669,-1.550034 -1.509918,-3.231575 -2.389587,-4.524445c-1.008911,-1.681541 -2.142456,-3.749443 -2.89743,-4.266121c-0.881927,-0.648178 -2.016632,-0.260674 -2.016632,0.644684c-0.501038,0.38868 0,0.130341 1.00885,2.71608c0.755005,2.066711 3.524323,8.533394 4.911835,10.341774c1.261658,1.680374 1.889679,-0.904198 2.391815,-1.291702c0,-0.90419 -0.502136,-2.455399 -1.00885,-3.62027l0,0z"/>
   <path fill-rule="evenodd" stroke="#000000" stroke-width="0.036" stroke-miterlimit="10" id="path97" d="m519.875793,114.247719c1.133606,-0.128006 2.769287,-0.38752 4.911804,-0.258347c2.015503,-0.129173 5.669067,0.517845 7.557556,0.517845c1.255981,-0.387505 3.019836,-1.552376 1.88855,-1.939888c-1.639099,-1.034523 -6.045349,-1.93988 -9.319153,-2.197044c-3.779297,-0.130341 -8.190063,0.514351 -9.825806,1.422035c-1.636902,0.515511 -0.502136,2.972076 0.504456,3.361931c1.00885,0 2.26593,-0.647034 4.282593,-0.906532l0,0z"/>
   <path fill-rule="evenodd" stroke="#000000" stroke-width="0.036" stroke-miterlimit="10" id="path99" d="m518.490601,121.617401c1.25824,-0.129158 2.264832,-0.387505 4.408508,-0.259491c1.762695,-0.128014 4.908325,0.516685 6.548645,0.516685c1.384033,-0.258347 2.390747,-1.162529 1.635742,-1.679207c-1.25946,-1.164879 -5.41394,-1.80957 -8.057434,-1.939903c-3.150269,-0.257172 -7.182373,0.130333 -8.692322,1.162521c-1.384094,0.389854 -0.252747,2.716072 0.504395,2.974434c0.377502,-0.129181 2.393066,-0.38752 3.652466,-0.77504l0,0z"/>
   <path fill-rule="evenodd" stroke="#000000" stroke-width="0.036" stroke-miterlimit="10" id="path101" d="m330.837036,89.941574c-0.124664,-4.136948 -2.769318,-9.695946 -6.924988,-16.161446c-4.657867,-6.85067 -12.469391,-16.806107 -19.520203,-23.917461c-7.30481,-7.628036 -16.247589,-14.350719 -22.920959,-19.652525c-7.180054,-5.42865 -12.972626,-8.919743 -17.882141,-11.506641c-5.164642,-2.844077 -8.43837,-5.299479 -11.713287,-4.394123c-3.652344,0.387511 -6.548676,3.878607 -9.697769,9.955433c-3.652374,6.205999 -7.55751,17.582308 -10.327988,27.665747c-2.897415,9.697086 -5.667892,21.721573 -6.927322,31.029984c-1.384094,8.920914 -2.267136,16.678123 -1.635727,22.754951c0.377441,5.818481 0.754944,9.309578 4.029861,12.412003c3.274902,2.71489 7.682266,4.52562 14.734253,4.913116l0,0c9.698898,-12.281662 21.789597,-21.332901 36.776627,-26.63353c14.606171,-5.558998 32.113129,-7.885223 52.009644,-6.465508l0,0z"/>
   <path fill="#ffc080" fill-rule="evenodd" stroke="#000000" stroke-width="0.036" stroke-miterlimit="10" id="path103" d="m327.691376,87.356987c-1.388641,-2.974411 -2.395264,-6.07682 -4.410736,-9.308403c-2.140198,-3.491096 -3.901764,-6.723846 -6.67337,-10.214935l0,0c-1.387512,0 -3.403015,-0.129173 -6.046509,0.130333c-3.023254,0 -6.675629,0.257164 -10.957123,0.775017l0,0c2.518768,1.810722 4.533142,3.749443 6.548676,7.240532c1.763824,2.84407 3.524231,7.240524 4.787048,11.764969l0,0c4.533173,0.129173 8.185577,-0.387512 10.956024,-0.130333c2.770477,-0.387512 4.534332,0 5.79599,-0.257179l0,0z"/>
   <path fill="#a16121" fill-rule="evenodd" stroke="#000000" stroke-width="0.036" stroke-miterlimit="10" id="path105" d="m298.595856,46.632244c3.780487,4.394115 7.051941,7.756042 9.822449,11.117966c2.770447,3.10358 5.039886,5.688152 6.802612,7.757198l0,0c-2.26944,-0.259491 -4.788239,-0.129166 -7.557587,-0.129166c-2.770447,0 -6.548645,0.387512 -9.947144,0.647018l0,0c-0.881897,-0.776184 -1.509918,-1.809555 -2.391846,-2.586899c-0.880768,-0.905357 -1.889679,-2.06789 -3.023254,-2.973251l0,0c1.636902,-2.845238 2.770447,-5.430973 3.905182,-7.757206c1.130188,-2.327393 1.761597,-4.52562 2.389587,-6.075661l0,0z"/>
   <path fill="#ffc080" fill-rule="evenodd" stroke="#000000" stroke-width="0.036" stroke-miterlimit="10" id="path107" d="m291.545013,40.813751c1.509918,1.034527 2.51767,1.809555 3.525452,2.844082c1.00769,0.775021 1.509918,1.422035 2.014313,1.93988l0,0c-0.632538,1.423203 -1.259399,3.619099 -2.392975,5.558983c-1.135864,2.199387 -2.391815,4.136944 -3.779327,6.853012l0,0c-2.012115,-1.681541 -3.652405,-3.620258 -5.415131,-4.782791c-2.014374,-1.423203 -2.895142,-2.45657 -4.532013,-3.621429c-1.88855,-1.291702 -3.901764,-2.714905 -6.044281,-4.266113l0,0c1.88855,-0.905361 4.282684,-1.939884 7.178955,-2.584576c2.642395,-0.907681 5.793732,-1.553535 9.445007,-1.941048l0,0z"/>
   <path fill="#a16121" fill-rule="evenodd" stroke="#000000" stroke-width="0.036" stroke-miterlimit="10" id="path109" d="m288.90036,38.614365c-2.394135,-2.327393 -5.292694,-4.911968 -8.690033,-7.239363c-3.778168,-2.844078 -9.192139,-5.947659 -12.342346,-7.887539c-3.273773,-2.327396 -5.543213,-2.972088 -7.30365,-4.007776c-2.394104,-1.291702 -3.652374,-1.939884 -5.164566,-2.456566l0,0c2.014389,2.974411 3.904037,5.301805 5.666733,8.404222c1.639191,2.456566 3.653534,5.688156 5.037628,8.275053c1.134705,2.327396 1.512207,6.205997 2.644653,7.62804c0.502167,1.034527 0.756104,1.679214 2.142456,1.422035c1.511047,-0.517841 3.524261,-1.294029 6.04422,-1.809547c1.890808,-0.647018 3.904053,-0.904194 6.046478,-1.294029c2.140198,-0.387512 3.651245,-0.905361 5.918427,-1.034531l0,0z"/>
   <path fill="#ffc080" fill-rule="evenodd" stroke="#000000" stroke-width="0.036" stroke-miterlimit="10" id="path111" d="m252.88208,17.153456c2.141312,2.844076 4.155701,5.558981 6.045349,8.143555c1.636902,2.199389 3.274933,4.783962 4.407379,7.240526c1.133575,2.327396 1.763855,5.043465 2.392975,7.62804l0,0c-2.015503,-1.162537 -4.281555,-1.809551 -5.4151,-1.938725c-1.511078,-0.387512 -2.266022,0 -3.274902,0.647018c-1.385223,0.516682 -2.391846,1.809544 -3.526566,3.36076c-1.006622,1.162529 -2.140198,2.974407 -2.895157,4.914295l0,0c-0.50444,-2.716072 -1.135849,-5.301807 -1.890823,-7.240532c-0.756058,-2.199387 -1.636887,-3.749432 -2.643478,-5.170303c-1.008896,-1.682709 -2.645767,-3.103582 -3.904068,-4.267281l0,0c1.635773,-4.655954 3.400726,-8.017876 5.288147,-10.085768c1.512207,-2.069052 3.778229,-3.62026 5.416245,-3.231586l0,0z"/>
   <path fill="#a16121" fill-rule="evenodd" stroke="#000000" stroke-width="0.036" stroke-miterlimit="10" id="path113" d="m241.422745,32.409531c1.762741,2.327393 3.524307,4.394123 4.783691,7.6292c1.386353,2.844074 2.268311,6.203674 3.149063,10.082275l0,0c-0.880753,1.810715 -1.007736,3.361923 -1.76384,5.171474c-0.377472,1.551208 -1.386353,3.360744 -1.635727,4.913132l0,0c-3.527679,1.163692 -5.91954,2.069054 -8.565338,3.231586c-2.769318,0.905354 -4.407318,2.06905 -6.295868,2.974407l0,0c1.132446,-6.075665 2.517685,-11.506638 3.652405,-15.773918c1.008865,-4.783958 1.889664,-7.497704 3.149063,-10.600121c1.132431,-2.973248 2.139038,-5.688156 3.52655,-7.628036l0,0z"/>
   <path fill="#ffc080" fill-rule="evenodd" stroke="#000000" stroke-width="0.036" stroke-miterlimit="10" id="path115" d="m230.590271,68.480667l-2.140198,10.473274l0,0c1.509933,1.422028 3.399628,2.713745 5.162338,4.394119c1.764954,1.551201 3.778183,2.974411 6.045349,4.783951l0,0c0.503342,-5.42981 1.25943,-10.212601 2.267136,-14.351883c0.756134,-4.264946 1.764999,-7.886375 3.022156,-10.860783l0,0c-3.14682,0.648186 -5.666763,2.06905 -8.059738,2.844074c-2.394104,0.778519 -4.66127,1.682716 -6.297043,2.717247l0,0z"/>
   <path fill="#a16121" fill-rule="evenodd" stroke="#000000" stroke-width="0.036" stroke-miterlimit="10" id="path117" d="m227.819824,80.89267c-0.503311,3.231567 -0.880814,6.85183 -1.133591,10.342941c-0.503311,3.102409 -0.754974,8.015541 -0.754974,10.730453c-0.125824,2.586899 0,3.491096 0.377487,5.688148c0.126953,1.93988 0.881943,3.74942 1.762711,5.947662l0,0l11.461624,-8.533401l0,0c-0.251633,-2.585732 -0.629135,-5.430969 -0.629135,-7.500038c-0.126999,-2.327393 0.125824,-4.394112 0.250534,-6.203659l0,0c-1.635773,-1.294037 -3.398483,-2.586899 -5.288193,-4.396461c-1.889664,-1.681549 -3.906281,-3.878601 -6.046463,-6.075645l0,0z"/>
   <path fill="#ffc080" fill-rule="evenodd" stroke="#000000" stroke-width="0.036" stroke-miterlimit="10" id="path119" d="m240.79248,106.879189c0.250534,0.647011 1.132416,2.069054 2.643509,2.844078c1.25827,0.648178 3.527679,2.069054 6.298126,2.844063l0,0c-2.014328,1.162537 -3.400711,2.714912 -4.66011,4.136955c-1.384109,1.294029 -2.645752,2.974396 -3.273773,4.525612l0,0c-1.889709,0.258347 -4.032135,0.128014 -5.919525,-0.904182c-2.268295,-1.034515 -4.408524,-2.456581 -6.424011,-4.783958l0,0c3.526581,-2.71608 6.675644,-4.782806 8.438354,-6.205994c2.014374,-1.681549 2.643494,-2.3274 2.89743,-2.456573l0,0z"/>
   <path fill="#a16121" fill-rule="evenodd" stroke="#000000" stroke-width="0.036" stroke-miterlimit="10" id="path121" d="m252.000137,110.498276c-3.399597,-1.162514 -5.289261,-2.584557 -7.053085,-4.267273c-1.762711,-1.938713 -2.643509,-2.973244 -2.643509,-6.593498c-0.631409,-4.266121 -0.125854,-10.472115 0.501022,-16.54895c0.504456,-6.592354 2.016617,-13.057846 4.03215,-19.391853c1.888519,-6.722679 4.911789,-14.481049 7.681107,-18.359653c2.142426,-3.619102 4.029907,-4.136944 7.053131,-3.489929c3.149078,0.258339 6.424011,1.939884 11.20993,5.042297c4.533142,2.714912 10.202209,7.886383 15.488068,12.541176c5.038757,4.524448 9.700012,10.472111 12.971497,14.349537c2.51886,3.232758 2.015533,4.007782 3.403046,6.336334c1.004303,2.198227 2.140167,4.266113 3.399597,6.722679l0,0c-6.549805,0.775024 -12.595184,1.809563 -18.138397,3.102432c-5.789185,1.034523 -10.953735,2.32856 -15.991364,4.395279c-5.540924,1.939896 -11.081818,5.56131 -14.734222,8.405396c-3.778214,2.713737 -6.172348,5.299461 -7.17897,7.756027l0,0z"/>
   <path fill-rule="evenodd" stroke="#000000" stroke-width="0.036" stroke-miterlimit="10" id="path123" d="m306.655609,54.775799c1.007721,-1.162537 2.770416,-1.938721 4.283752,-2.844078c1.384125,-1.29287 3.019867,-2.067894 4.407379,-2.327393c1.00885,0 1.384125,0.516678 1.635742,1.552368c-0.125854,0.387512 -0.880798,0.387512 -2.264862,1.939884c-2.142487,1.551208 -7.430664,5.430977 -9.070923,6.59351c-1.761566,0.516682 -2.264862,-1.551208 -1.509918,-2.198223c-0.125824,-1.035694 1.387482,-1.939884 2.518829,-2.716068l0,0z"/>
   <path fill-rule="evenodd" stroke="#000000" stroke-width="0.036" stroke-miterlimit="10" id="path125" d="m311.695496,59.043072c1.384064,-0.517841 3.023224,-0.906517 4.912933,-1.16486c1.635712,-0.259502 3.651215,-1.291706 5.035339,-0.647011c0.62912,0.387508 1.260498,1.034523 0.879639,1.93988c-0.374115,0.25951 -0.754944,0.25951 -2.643494,1.034531c-2.390747,0.775013 -8.940552,2.456562 -10.8302,2.974407c-2.015503,-0.387512 -1.260529,-1.939884 -0.632538,-2.714909c0.126953,-0.906517 1.890808,-1.034519 3.27832,-1.422039l0,0z"/>
   <path fill-rule="evenodd" stroke="#000000" stroke-width="0.036" stroke-miterlimit="10" id="path127" d="m233.110214,53.870438c-1.387512,0 -2.519943,0.38868 -3.905197,0.647022c-1.762695,0.387508 -4.66008,0.90419 -5.7948,1.551205c-1.385254,-0.130333 -2.769348,-0.517845 -1.762711,-1.163696c0.881912,-1.16254 4.156784,-2.584572 6.927261,-3.23159c2.142471,-0.775024 6.548676,-0.905357 7.935028,-0.387512c1.007797,0 0.503357,2.069054 0,2.714909c-1.008865,-0.130337 -2.141296,0 -3.399582,-0.130337l0,0z"/>
   <path fill-rule="evenodd" stroke="#000000" stroke-width="0.036" stroke-miterlimit="10" id="path129" d="m235.250443,59.430592c-1.259445,0 -2.267166,0.387508 -3.52774,0.645847c-1.509872,0.129173 -4.15567,1.034523 -5.037582,1.294033c-1.386383,0 -2.391861,-0.517849 -1.509949,-1.034531c0.75499,-1.034527 3.399597,-2.327393 6.04538,-2.845242c2.267136,-0.647011 5.540924,-0.776184 6.926178,-0.387508c0.754944,0.12801 0.627975,1.93988 0.12468,2.455402c-0.881943,-0.128002 -1.888535,0 -3.020966,-0.128002l0,0z"/>
   <path fill-rule="evenodd" stroke="#000000" stroke-width="0.036" stroke-miterlimit="10" id="path131" d="m226.434601,106.748848c-1.763885,0.259514 -3.401871,0.647018 -4.912949,1.163696c-1.887405,0 -4.029861,0.90419 -5.037613,0.645851c-1.132431,-0.775009 -1.258255,-1.422028 -0.880798,-1.939888c-0.12468,-0.644669 0.630264,-0.516678 2.770462,-1.032188c2.015533,-1.034523 8.815842,-2.84407 10.705551,-2.974403c1.636871,0 0.880753,1.680374 0.630234,2.584557c-0.377502,0.389847 -2.267166,0.906532 -3.274887,1.552376l0,0z"/>
   <path fill-rule="evenodd" stroke="#000000" stroke-width="0.036" stroke-miterlimit="10" id="path133" d="m370.50769,96.276749c-7.552979,-2.066734 -13.220886,-3.748276 -18.512421,-5.557831c-5.790314,-2.19706 -9.321381,-4.654793 -15.363373,-6.854172c-6.549805,-2.844093 -14.481445,-6.722694 -22.793945,-7.626877c-8.691193,-0.776192 -20.026917,0.904182 -27.710297,2.974411c-7.804688,1.551201 -11.078491,3.491089 -17.629395,8.275055c-7.052032,4.654785 -14.607285,12.281654 -22.164856,19.909698c-7.80809,7.628036 -15.365631,15.901924 -22.16597,25.338348c-6.925018,8.792892 -13.474854,18.489975 -17.631668,29.091263c-4.533173,10.344131 -7.933899,21.721573 -8.185577,33.613403c-0.756073,11.507813 -0.883041,23.144791 5.919571,35.426453c6.548645,11.636978 21.788452,25.728195 34.506088,35.8116c12.344681,9.826294 23.930939,15.386444 40.55484,23.143677c16.747467,7.49765 37.779877,17.195892 57.67984,22.109039c19.394379,4.525604 40.928925,7.239349 57.805634,5.689331c16.247559,-2.199371 28.460693,-9.826233 40.049286,-17.325104c11.335785,-7.887543 19.142731,-17.585846 27.327148,-28.057953c7.810333,-10.597778 15.619568,-21.588913 19.522461,-34.388412c3.401855,-12.799515 4.911804,-28.701431 2.643494,-42.277115c-2.264862,-14.479889 -7.805786,-27.925247 -16.118317,-40.855103c-8.692261,-13.056686 -23.802856,-26.374054 -35.641937,-35.036591c-12.467102,-8.532234 -25.439758,-12.41201 -36.020569,-16.160278c-10.703217,-3.621429 -18.765228,-5.690483 -26.070038,-7.242844l0,0z"/>
   <path fill="#ffc080" fill-rule="evenodd" id="path135" d="m274.921051,86.58197c-1.259369,0.127998 -2.392944,0.90419 -3.401855,1.809547c-1.382935,0.644707 -2.644623,1.939888 -3.777039,3.361931l0,0c0.252808,3.102417 1.132416,6.722679 2.644623,11.377464c1.386383,4.395287 6.171173,12.28167 6.548676,15.643585c0.126953,2.584579 -1.88855,3.231575 -4.657867,3.489929c-3.403015,0.129166 -7.557556,-0.775017 -12.972626,-1.679222c-5.164627,-1.164848 -11.335785,-2.584557 -18.0103,-4.267265l0,0c-0.630295,0.257172 -1.762726,1.681557 -2.897446,2.844078c-1.385223,1.551201 -2.897385,2.844055 -4.533157,5.300629l0,0c1.25824,3.102425 3.146805,6.335175 5.163467,9.697098c1.888519,2.972061 4.407333,6.075668 7.053101,9.307266c2.518768,2.714905 7.555298,5.818481 8.312485,7.886368c0.251663,1.93988 -1.00885,2.716064 -5.668976,4.267258c-5.163437,1.163696 -17.126099,1.681549 -23.675888,2.974442c-6.424011,0.647003 -11.587448,2.069046 -14.988174,2.844055l0,0c-0.504456,0.647034 -1.132492,1.034531 -1.385223,2.199387c-0.503342,0.644699 -0.880829,2.067902 -1.132462,3.231598l0,0c3.274902,3.74942 6.801453,6.981033 11.081848,10.212601c4.029846,2.844086 9.698898,5.560165 14.105087,8.145889c4.031036,2.327408 10.201096,5.042313 11.208817,7.110184c0.252792,1.81073 -3.524261,2.974426 -6.549789,4.913147c-2.769363,1.552368 -5.036514,3.103592 -10.199951,6.723846c-6.045334,3.877441 -13.600647,8.533386 -24.055649,15.513229l0,0c0,1.035706 0.252808,2.456589 0.756119,3.749451c0.251678,1.291687 0.75499,2.456558 1.509933,4.008942l0,0c6.298157,1.80954 12.846832,3.231567 19.142715,3.74942c6.172333,0.387512 13.727631,-0.260666 18.765213,-0.517853c4.659012,-0.776169 7.683395,-2.456543 9.57196,-1.551193c1.635742,0.387497 0.880753,3.491089 1.133575,7.887527c-0.378616,4.781631 -1.386383,14.737091 -1.638046,20.813904c-0.251633,5.818512 -0.251633,10.858429 0,14.60672l0,0c1.25943,0.908844 2.268295,1.93985 4.408493,3.103546c1.511047,1.035706 4.156799,2.199432 6.548676,3.493469l0,0c3.905182,-1.424377 8.566467,-3.493469 12.595184,-6.207153c4.155701,-3.103577 9.315735,-9.04776 12.591797,-10.860779c2.769318,-1.936401 3.398438,-1.936401 5.288116,-0.515564c1.008881,1.034546 1.763855,2.844086 3.652374,7.36853c2.015503,4.138123 5.542084,11.896484 8.691132,17.714996c2.89743,5.688141 5.918427,10.342926 9.067505,15.381775l0,0c1.25943,0.519012 3.149078,1.294037 6.168915,2.329712c2.770477,1.034515 6.676758,1.93869 11.20993,3.232758l0,0c3.023285,-4.139282 5.920715,-7.887573 8.691193,-12.282867c2.518768,-4.527924 4.912903,-10.991089 7.177795,-13.446503c1.888519,-2.588043 2.643524,-3.493439 5.16684,-2.198212c2.264893,1.034515 3.524292,3.489929 8.56192,7.887512c4.78595,4.394135 14.611786,12.411987 20.275116,17.581146c5.418518,4.653656 8.692291,7.496521 11.211121,9.567932l0,0c0.251617,-0.260681 1.006622,-0.386353 2.267151,-0.386353c0.880798,-0.388672 2.89743,-0.649323 4.660126,-0.778534l0,0c0.252777,-4.653595 0.252777,-10.083405 1.007751,-16.806091c0.250519,-7.239349 1.257141,-18.615692 2.015503,-23.659149c0.754974,-5.298279 1.131317,-6.593506 3.019836,-6.852997c1.387512,-0.386353 2.769318,1.553497 6.047638,4.397614c2.51651,2.714905 6.923889,6.978699 11.335785,11.247131c4.533173,3.74939 9.193298,7.628052 14.983643,11.633484l0,0c2.015472,-1.290527 3.905182,-2.844086 5.667877,-4.654785c1.513306,-2.064392 3.277161,-4.134644 4.787079,-6.722687l0,0c-4.032166,-7.23822 -6.925049,-14.220398 -10.076385,-20.944244c-3.398438,-6.849518 -7.303619,-16.417419 -7.809174,-19.779358c-0.376343,-4.007782 2.521088,-2.974411 5.793701,-2.327393c3.399597,0.647018 7.809235,3.75061 12.718719,5.816162c4.411896,1.164871 8.566467,2.718384 12.972687,3.623764c3.905151,0.775009 7.181213,1.939865 10.326874,2.455383l0,0c1.763824,-2.84407 3.403015,-5.818481 4.410767,-8.920883c1.005493,-3.361923 1.384064,-6.851852 1.636871,-10.473297l0,0c-6.047638,-3.878601 -10.707764,-7.111343 -14.485992,-10.212601c-4.153442,-3.103577 -7.553009,-5.948822 -7.805786,-8.533401c-0.506714,-2.716064 2.014343,-4.65596 6.041931,-7.758377c4.032135,-3.749435 9.321442,-8.403046 17.25647,-13.964355l0,0c0,-1.291702 -0.125854,-2.714905 -0.378601,-3.749451c-0.252777,-1.0345 -0.754974,-2.197037 -1.007782,-2.974396l0,0c-1.889679,1.294037 -5.917267,1.811874 -11.585175,0.130356c-6.173431,-1.81073 -19.146088,-6.723846 -23.426483,-9.17926c-4.15683,-2.456573 -3.524292,-4.138107 -2.014374,-6.594681c0.880798,-3.361923 5.792603,-7.239365 8.438354,-11.117966c2.769318,-4.007751 4.911804,-7.757202 7.430573,-11.764984l0,0c-0.37973,-0.906509 -1.00885,-1.681549 -1.38858,-2.328552c-0.629181,-1.032211 -1.384125,-1.937561 -2.264923,-2.714905l0,0c-7.430573,0.387512 -14.232056,0.90419 -20.4021,1.551193c-6.297058,0.387527 -13.09964,1.551208 -17.002563,1.551208c-4.408447,-0.517838 -7.051941,-1.034515 -7.933868,-3.491074c-1.008911,-2.844086 1.509918,-8.275055 2.142456,-12.799507c0.376343,-5.043488 0.250488,-10.214943 0.122437,-16.032272l0,0l-5.288147,-1.681534l0,0c-3.525452,1.939873 -7.178955,3.749428 -10.454987,5.947655c-3.524292,2.198235 -7.430634,4.267265 -10.201111,6.721512c-3.272614,2.199387 -6.422791,6.335175 -8.433746,7.370865c-2.395264,0.90419 -3.277222,0 -4.032135,-2.71492c-1.260559,-3.361908 -0.505615,-11.764969 -1.134735,-16.161423c-1.134705,-5.043465 -2.390717,-9.30957 -3.778229,-10.860786c-1.382965,-1.551216 -1.763855,-0.776192 -4.533173,1.809547c-3.273773,2.3274 -9.57193,9.825104 -13.099609,13.056694c-3.525421,2.456558 -6.548706,5.043449 -8.058624,4.783951c-1.763824,-0.258331 -1.387482,-2.197052 -2.26825,-5.818481c-1.130188,-4.394127 -2.5177,-12.409668 -4.153442,-17.582306c-1.763855,-5.299484 -4.159088,-9.050072 -6.676788,-12.670326l0,0c-2.770447,-1.551224 -5.163422,-2.456581 -8.565308,-3.231598c-3.019836,-0.775024 -7.050842,-1.422035 -10.703247,-1.422035l0,0c-1.636841,4.007774 -2.643463,8.273888 -3.525391,12.799507c-0.632568,4.524452 -0.880768,10.98996 -1.761627,13.964363c-1.890778,2.197067 -3.780426,2.844078 -7.056488,0.905357c-3.273743,-1.810707 -8.686615,-9.050079 -11.458191,-11.767303c-3.020996,-2.844086 -5.037628,-4.52446 -6.548706,-5.557816c-2.009796,-1.288223 -3.520844,-2.322754 -4.529785,-2.579926l0,0z"/>
   <path fill-rule="evenodd" stroke="#000000" stroke-width="0.036" stroke-miterlimit="10" id="path137" d="m332.223419,128.985931c0.880768,-1.422028 3.273773,-3.231575 5.669006,-3.877434c1.761597,-0.906509 3.271545,-2.069038 5.917267,-2.069038c2.522217,-0.38752 6.297058,-0.517853 8.438354,0.129158c1.509918,0.516685 1.761627,2.19706 0.755005,3.102417c-1.131348,-0.129181 -5.669067,-0.387497 -7.808105,-0.257164c-2.522217,0.387505 -5.291534,1.939873 -6.928436,3.231567c-2.389557,0.77504 -3.652374,3.878601 -4.78598,3.878601c-1.257111,-0.258331 -2.012085,-2.973221 -1.257111,-4.138107l0,0z"/>
   <path fill-rule="evenodd" stroke="#000000" stroke-width="0.036" stroke-miterlimit="10" id="path139" d="m391.417725,159.368912c0,-1.80954 -0.128113,-5.429794 -0.883057,-7.36853c-0.879669,-2.197052 -1.007782,-4.654785 -2.267151,-6.335159c-1.636902,-2.585739 -4.534332,-5.55899 -5.794891,-6.463181c-1.384064,-0.90535 -3.652374,0.129181 -2.894012,1.67923c0.250549,1.163681 4.154572,3.491089 5.4151,5.947647c1.256012,2.456573 1.509949,5.301804 2.139069,8.015549c0.37973,2.327393 -0.62912,5.5578 0.37973,6.722672c0.501068,0.388687 3.271545,-0.516663 3.905212,-2.198227l0,0z"/>
   <path fill-rule="evenodd" stroke="#000000" stroke-width="0.036" stroke-miterlimit="10" id="path141" d="m325.927521,133.511566c-0.37973,1.03569 0.24826,2.457718 1.635773,3.103577c1.257111,0.516663 2.770416,0.129166 3.14679,-1.03569c0.504456,-1.032196 -0.122437,-2.455414 -1.509949,-2.972092c-1.260498,-0.647003 -2.770416,-0.259506 -3.272614,0.904205l0,0z"/>
   <path fill-rule="evenodd" stroke="#000000" stroke-width="0.036" stroke-miterlimit="10" id="path143" d="m384.23877,164.799911c-0.505585,1.0345 0.122406,2.456558 1.509918,2.974411c1.260498,0.645828 2.770447,0.258347 3.273743,-0.904205c0.378662,-1.163696 -0.250519,-2.456558 -1.509918,-3.103577c-1.387482,-0.519012 -2.772705,-0.129181 -3.273743,1.033371l0,0z"/>
   <path fill-rule="evenodd" stroke="#000000" stroke-width="0.036" stroke-miterlimit="10" id="path145" d="m361.188629,150.578339c-1.763855,4.136963 0.758301,9.180435 5.417328,11.377487c4.783722,2.069046 10.075226,0.516678 11.837921,-3.620285c1.762726,-4.138092 -0.754913,-9.17923 -5.4151,-11.249435c-4.785919,-2.195892 -10.074066,-0.516693 -11.840149,3.492233l0,0z"/>
   <path fill="#ffffff" fill-rule="evenodd" stroke="#000000" stroke-width="0.036" stroke-miterlimit="10" id="path147" d="m367.737274,150.448013c-0.501038,1.164871 0.253906,2.586914 1.513336,3.103577c1.384064,0.645859 2.770447,0.258362 3.273743,-0.905334c0.504425,-1.163696 -0.253906,-2.456589 -1.509918,-3.103592c-1.387482,-0.516693 -2.771576,-0.129166 -3.277161,0.90535l0,0z"/>
   <path fill-rule="evenodd" stroke="#000000" stroke-width="0.036" stroke-miterlimit="10" id="path149" d="m339.781006,135.709778c-1.766144,4.138138 0.62796,9.180435 5.288116,11.248322c4.787109,2.199387 9.948273,0.518997 11.712128,-3.61911c1.762695,-4.136948 -0.63028,-9.178085 -5.288147,-11.248322c-4.787079,-2.199371 -10.076385,-0.517822 -11.712097,3.61911l0,0z"/>
   <path fill="#ffffff" fill-rule="evenodd" stroke="#000000" stroke-width="0.036" stroke-miterlimit="10" id="path151" d="m346.454346,135.709778c-0.376373,1.034531 0.251678,2.456573 1.512207,2.974426c1.257141,0.647018 2.644592,0.130325 3.145691,-0.905365c0.506683,-1.163696 -0.124725,-2.456558 -1.382965,-3.103577c-1.386353,-0.515518 -2.770477,-0.128006 -3.274933,1.034515l0,0z"/>
   <path fill-rule="evenodd" stroke="#000000" stroke-width="0.036" stroke-miterlimit="10" id="path153" d="m272.906738,87.48616c0.251617,-2.199394 0.754944,-4.267273 1.509918,-6.205994c0.631378,-2.199387 1.135834,-5.170311 2.015503,-5.947662c0.631409,-1.29287 2.016602,-0.645844 2.644623,0c0,0.387512 0,0.777351 -0.503296,3.621437c-0.754944,2.972076 -1.763885,11.247131 -2.518829,13.83287c-1.385223,1.937561 -2.644592,0 -3.274902,-0.776184c-0.754974,-0.775017 -0.376312,-3.101257 0.126984,-4.524467l0,0z"/>
   <path fill-rule="evenodd" stroke="#000000" stroke-width="0.036" stroke-miterlimit="10" id="path155" d="m266.862457,89.554062c-0.253876,-1.939896 -0.253876,-4.524467 0,-6.334007c-0.253876,-1.939888 0.123566,-5.688148 0.629181,-6.335175c0.377472,-1.164864 1.888519,-1.164864 2.645752,-0.517853c0.377502,0.130341 0,0.647026 0.377502,3.61911c0.250488,2.845245 0.377472,11.506645 0.377472,14.093536c-0.754974,1.809555 -2.644653,0.775032 -3.274902,-0.130325c-0.755005,-0.90419 -1.008881,-2.844078 -0.755005,-4.395287l0,0z"/>
   <path fill="#a16121" fill-rule="evenodd" stroke="#000000" stroke-width="0.036" stroke-miterlimit="10" id="path157" d="m307.917236,78.693268c-2.8974,-0.129173 -5.41507,-0.129173 -8.94165,0.517845c-3.652374,0.259506 -8.061981,1.034515 -11.335785,2.327393c-3.399597,0.776184 -6.674469,2.199394 -9.317993,3.749435l0,0c2.643524,2.069046 5.665649,4.783958 8.563049,7.628044c2.8974,2.716072 6.548706,6.722679 9.067474,9.050079c2.264923,1.809547 3.398499,2.586899 4.912933,2.844063c1.130188,0.259514 1.762726,-0.775017 2.390717,-2.584564c0.379791,-2.844078 0.63028,-7.758377 1.261658,-11.249466c0.501099,-3.361931 0.879669,-6.722694 1.634674,-8.533386c0.756042,-2.326248 0.881897,-3.101265 1.764923,-3.749443l0,0z"/>
   <path fill="#a16121" fill-rule="evenodd" stroke="#000000" stroke-width="0.036" stroke-miterlimit="10" id="path159" d="m265.978302,92.139801c0.126984,3.619087 0.380829,6.205986 1.261688,9.180405c0.62912,2.327393 1.385193,4.394112 2.769318,6.721504c1.008881,2.456566 2.89743,4.655968 3.652374,7.112541c0.504456,1.680374 0.377502,3.231567 -0.377441,4.136948c-1.636932,0.258324 -3.652435,0.258324 -6.547607,0c-2.645721,-0.129181 -5.793701,-0.776215 -9.446106,-1.422066c-4.157898,-0.904182 -8.815781,-2.069031 -14.484818,-3.491074l0,0c4.032135,-4.654793 7.430618,-8.145882 11.589676,-12.02449c4.028717,-3.878609 7.429474,-7.111359 11.582916,-10.213768l0,0z"/>
   <path fill="#a16121" fill-rule="evenodd" stroke="#000000" stroke-width="0.036" stroke-miterlimit="10" id="path161" d="m232.354126,126.531708c0.503311,1.937546 1.511063,4.135773 3.023239,6.592331c1.132431,2.327393 2.895172,5.042313 4.784836,7.628052c1.888565,2.067886 3.905182,4.911957 6.044235,6.593506c1.763855,1.680374 3.527679,2.198242 4.282639,3.489914c0.251663,0.517868 0.631454,1.164871 -1.76384,1.939896c-2.8974,0.388687 -10.199921,1.551208 -14.105057,2.069061c-4.407349,0.517853 -6.801468,0.257187 -10.579727,1.163696c-4.155685,0.644699 -7.935043,1.550049 -12.720993,2.714905l0,0c1.387512,-4.396454 3.276016,-8.791733 7.054245,-14.221558c3.400726,-5.429794 8.060898,-11.248291 13.980423,-17.969803l0,0z"/>
   <path fill="#a16121" fill-rule="evenodd" stroke="#000000" stroke-width="0.036" stroke-miterlimit="10" id="path163" d="m206.408798,169.325516c0.880798,1.550049 2.644653,3.359604 5.290405,5.42981c2.267151,2.069061 6.04538,4.913132 9.444992,7.110199c3.023239,1.939896 6.423981,3.231583 9.697723,4.914307c3.273788,1.291702 7.430618,3.361908 9.067505,4.65361c1.133591,1.164886 0.125809,0.90535 -1.636887,2.714935c-2.39183,1.681519 -7.304764,3.878571 -10.830215,6.593506c-3.652359,2.069031 -6.927277,4.266083 -10.831314,7.110153c-4.407349,2.456589 -8.815811,6.077988 -14.230957,9.439911l0,0c-0.754944,-4.267273 -1.76384,-8.662537 -1.63913,-13.706009c0,-5.299484 -0.75499,-10.600113 0.630264,-16.418594c0.631409,-5.818512 2.771606,-11.766144 5.037613,-17.841827l0,0z"/>
   <path fill="#a16121" fill-rule="evenodd" stroke="#000000" stroke-width="0.036" stroke-miterlimit="10" id="path165" d="m207.040207,230.218323c2.267166,0.90419 5.036484,1.681549 8.815811,2.327377c3.399628,0.647018 8.563065,1.163696 12.594055,1.551208c3.65242,0 8.059723,-0.775009 11.334686,-0.775009c3.147919,-0.387527 5.793655,-0.905365 7.935028,-1.03569c1.635712,-0.387512 2.266022,-1.163696 3.274887,-0.387512c0.62915,0 1.258286,0.387512 1.384109,2.714905c-0.62912,2.199402 -1.006622,7.111359 -1.636902,10.731613c-0.50444,3.230423 -0.881927,6.853012 -1.132477,9.823944c-0.754929,2.457733 -0.881882,4.657135 -0.881882,7.112488c0,2.455444 0.252762,5.173828 0.754959,8.143616l0,0c-5.790344,-4.135803 -10.829056,-7.497742 -15.615005,-11.503174c-5.037659,-4.008957 -8.060898,-6.597 -12.468246,-11.250641c-4.535416,-4.910797 -9.32254,-10.729294 -14.359024,-17.453125l0,0z"/>
   <path fill="#a16121" fill-rule="evenodd" stroke="#000000" stroke-width="0.036" stroke-miterlimit="10" id="path167" d="m266.482758,280.642487c2.391815,-0.904175 5.036438,-1.80954 7.933899,-3.74939c2.770447,-2.069122 6.299286,-4.784027 9.19101,-7.112579c2.518829,-2.585693 4.914093,-5.689331 6.677887,-6.333984c1.25946,-1.034515 2.267151,-0.259491 3.524323,1.80954c1.133575,1.93988 1.88855,6.978699 3.778198,10.602448c1.636902,3.230438 3.525452,7.23819 5.667908,10.473267c1.635742,2.713776 3.150238,5.42868 4.533203,7.628052c1.133575,2.065552 2.269409,4.135773 2.8974,5.689301l0,0c-2.769348,-1.164856 -6.548676,-2.589203 -10.829071,-4.268433c-4.914063,-1.810699 -10.454956,-4.135742 -16.122833,-6.464325c-5.790344,-2.584595 -11.206573,-5.172668 -17.251923,-8.273895l0,0z"/>
   <path fill="#a16121" fill-rule="evenodd" stroke="#000000" stroke-width="0.036" stroke-miterlimit="10" id="path169" d="m335.876953,308.311707c2.89743,-3.364227 5.287018,-6.854126 7.679962,-10.992279c2.142487,-4.524445 4.031006,-11.635773 6.172363,-13.831726c1.635712,-2.328491 2.89743,-1.424347 5.288116,0.256012c2.015472,1.423248 5.162292,4.782837 8.940552,8.533417c3.779327,3.232758 9.700012,8.276245 14.360138,12.154816c4.407349,3.74942 8.185577,6.979858 11.836792,10.212677l0,0c-5.917267,0.26062 -11.584015,0.904114 -17.505829,0.515472c-5.920654,-0.386383 -12.08963,-1.035736 -18.010254,-1.939911c-6.170074,-1.160187 -12.592957,-2.973267 -18.761841,-4.908478l0,0z"/>
   <path fill="#a16121" fill-rule="evenodd" stroke="#000000" stroke-width="0.036" stroke-miterlimit="10" id="path171" d="m436.755127,294.864044c-1.387482,-0.649353 -3.277161,-2.199402 -5.667908,-4.138123c-2.89743,-2.455383 -6.422821,-5.42981 -9.573059,-8.404236c-3.524261,-3.103546 -7.430573,-7.112518 -9.695465,-9.051208c-2.26828,-2.065582 -3.023254,-4.524475 -3.652405,-4.394165c-1.00885,-0.774963 -1.387482,0.130371 -1.63913,2.714966c-0.62915,2.714874 -0.881927,8.273895 -1.257141,13.705963c-0.504456,5.040009 -1.134705,12.022186 -1.387482,16.936523c-0.375244,4.394073 -0.375244,8.014343 -0.502197,10.342926l0,0c4.533173,-1.420898 8.814697,-2.974426 12.845703,-4.653656c3.652374,-1.809509 7.051971,-3.233887 10.703247,-5.300598c3.403015,-2.328613 6.675629,-4.914337 9.825836,-7.758392l0,0z"/>
   <path fill="#a16121" fill-rule="evenodd" stroke="#000000" stroke-width="0.036" stroke-miterlimit="10" id="path173" d="m471.892639,252.845245c-2.395294,-0.519012 -5.4151,-1.03569 -9.067535,-2.069046c-4.156799,-1.295197 -9.444977,-2.845245 -13.47821,-4.139267c-3.778229,-1.93988 -8.057465,-3.229279 -9.948273,-4.394135c-2.26828,-1.291702 -4.030975,-1.939896 -4.279266,-1.422043c-0.759491,0.387512 -0.505554,1.681549 0.754974,4.911972c0.754974,2.84407 3.398468,8.145874 6.043091,13.835205c2.643494,5.689331 5.920685,12.282806 9.825836,20.296051l0,0c4.660156,-4.910797 8.437256,-9.564423 11.836853,-13.962036c3.273773,-4.783966 6.04422,-8.791718 8.312531,-13.056702l0,0z"/>
   <path fill="#a16121" fill-rule="evenodd" stroke="#000000" stroke-width="0.036" stroke-miterlimit="10" id="path175" d="m481.840912,192.985825c-3.525452,2.327393 -6.802612,5.041122 -9.823608,7.628052c-3.401886,2.454224 -6.800323,5.817291 -8.689972,8.015533c-2.264923,1.551208 -3.525452,2.456558 -3.272675,3.74942c-0.126953,1.291702 2.014374,2.197052 4.533203,4.653641c2.015472,2.069031 7.050842,5.430954 9.822418,7.628021c2.5177,1.809555 4.532043,2.974396 6.04538,3.491104l0,0c1.131317,-6.335175 2.264893,-12.412018 2.391876,-18.231644c0.001099,-6.075684 0.001099,-11.376312 -1.006622,-16.934128l0,0z"/>
   <path fill="#a16121" fill-rule="evenodd" stroke="#000000" stroke-width="0.036" stroke-miterlimit="10" id="path177" d="m460.302917,147.863449c-2.137909,2.972061 -4.153412,5.688141 -6.043121,8.661407c-2.389557,2.844055 -4.658997,5.560135 -6.295868,8.144714c-1.889679,2.199387 -3.779358,3.231598 -3.779358,5.171463c-0.754944,1.552368 0.754974,2.328552 3.14682,4.267288c2.89743,1.681549 9.319153,3.621414 13.478241,5.300644c3.524323,1.164856 6.043091,2.069046 8.940521,2.716064c2.8974,0.126846 5.540924,0.257187 8.437195,-0.648178l0,0c-1.888489,-5.947647 -4.279236,-11.119125 -7.176666,-16.935287c-3.023254,-5.688141 -6.421722,-11.248306 -10.707764,-16.678116l0,0z"/>
   <path fill="#a16121" fill-rule="evenodd" stroke="#000000" stroke-width="0.036" stroke-miterlimit="10" id="path179" d="m413.834198,111.921486c0.627991,2.456573 1.008881,4.782799 1.131317,7.497696c-0.122437,2.199409 -0.881927,5.172646 -1.25827,7.888718c-0.879669,2.844063 -2.014404,6.592339 -2.014404,9.179253c-0.505554,1.937546 0.376343,3.489929 2.142487,4.136932c1.889648,0.647018 4.783691,-0.259521 9.193298,-0.259521c4.028748,-0.645828 10.075226,-1.423203 15.23642,-1.810684c4.78595,-0.516708 9.446106,-0.516708 13.979279,0l0,0c-7.176697,-6.593521 -13.852325,-11.763832 -18.639404,-15.513268c-5.161194,-4.136932 -8.940521,-5.171478 -11.836853,-7.111343c-3.273743,-1.939896 -5.920624,-3.104752 -7.933868,-4.007782l0,0z"/>
   <path fill="#a16121" fill-rule="evenodd" stroke="#000000" stroke-width="0.036" stroke-miterlimit="10" id="path181" d="m403.00174,108.558395c-0.880829,-0.645851 -3.778229,-1.939888 -9.193329,-3.361923c-5.793701,-1.679207 -13.098511,-4.006599 -23.425354,-6.463165l0,0c1.888489,4.007782 2.773834,6.98101 3.654633,10.341766c0.376343,2.586906 0.122437,5.301811 0.250519,8.145889c-0.375214,2.714905 -0.250519,8.015533 0.379761,9.437576c0.124664,1.163696 1.635712,0 4.031006,-1.550041c2.518768,-2.199394 8.059723,-7.628029 11.332397,-9.826256c2.898499,-2.584564 4.282623,-2.457726 6.547516,-3.620262c2.015472,-1.163704 4.157959,-2.198227 6.422852,-3.103584l0,0z"/>
   <path fill="#a16121" fill-rule="evenodd" stroke="#000000" stroke-width="0.036" stroke-miterlimit="10" id="path183" d="m333.354736,85.158775c1.640289,0.904182 3.905182,1.679207 6.299286,2.844063c2.140198,1.032211 4.910645,2.455414 7.806915,3.749451c2.523376,0.645859 5.793732,2.066727 8.818115,2.84407c3.019867,1.162529 5.918427,1.679207 9.193329,2.972076l0,0c-2.770447,1.939896 -5.667877,4.526802 -8.691132,7.240524c-3.273773,2.586906 -7.430634,6.982185 -9.569672,9.180412c-1.888519,1.809547 -3.654663,2.844086 -3.904022,2.584572c-1.007782,-0.387512 -1.260559,-2.584572 -1.762726,-5.557808c-1.008911,-3.619102 -2.142487,-9.825104 -3.403015,-14.091217c-1.25827,-4.138107 -3.019836,-8.533401 -4.787079,-11.766144l0,0z"/>
   <path fill-rule="evenodd" stroke="#000000" stroke-width="0.036" stroke-miterlimit="10" id="path185" d="m220.640869,137.778839c-1.509903,-1.93988 -3.149078,-4.52562 -4.407364,-6.722687c-1.511063,-2.585724 -3.401825,-5.55899 -3.652359,-6.981003c-0.253937,-1.422035 1.132416,-2.199394 2.140198,-1.81189c0.377472,0.389854 0.880753,0.259514 2.897415,3.621429c2.392975,3.102417 8.563049,11.635818 10.201065,14.609055c0.881927,2.198212 -2.015533,2.069046 -3.274887,1.551208c-1.385254,-0.905334 -2.519974,-2.326218 -3.904068,-4.266113l0,0z"/>
   <path fill-rule="evenodd" stroke="#000000" stroke-width="0.036" stroke-miterlimit="10" id="path187" d="m225.552658,131.703171c-1.133575,-1.422028 -2.142441,-3.491089 -3.023239,-4.782799c-1.132477,-1.810684 -2.644653,-3.878586 -2.644653,-4.783943c0.12587,-1.292862 0.503311,-1.551224 1.635757,-1.292862c0.378616,-0.259514 0.378616,0.387497 2.015503,2.455391c1.384094,1.93988 6.04538,8.145882 7.178955,10.213783c0.629135,1.680374 -1.636887,1.423187 -2.391846,1.162521c-1.007736,-0.258347 -1.762726,-2.067902 -2.770477,-2.972092l0,0z"/>
   <path fill-rule="evenodd" stroke="#000000" stroke-width="0.036" stroke-miterlimit="10" id="path189" d="m233.110214,260.473297c-2.142441,1.164856 -4.912918,1.680359 -7.305923,2.974426c-2.771561,0.905334 -5.918365,1.80954 -7.430588,2.194702c-1.509888,-0.385162 -2.140198,-1.93869 -1.385223,-2.584564c0,-1.034515 0.880783,-0.775024 4.031006,-2.199402c3.399597,-1.680359 12.971512,-6.719193 16.12059,-7.107864c2.391861,-0.645828 1.511093,2.198242 0.754974,3.619095c-0.883057,0.904205 -2.644608,1.938721 -4.784836,3.103607l0,0z"/>
   <path fill-rule="evenodd" stroke="#000000" stroke-width="0.036" stroke-miterlimit="10" id="path191" d="m228.324265,254.139267c-1.639145,0.386353 -3.527695,1.550049 -5.164581,2.065567c-2.140198,0.649353 -4.029892,1.164856 -5.163467,1.553528c-1.132401,-0.518982 -1.259399,-1.294037 -0.881897,-1.810699c0.126953,-0.519012 0.253906,-0.648178 2.771606,-1.423187c2.391846,-1.420883 8.94165,-4.6548 11.335754,-5.170319c1.635757,-0.519028 1.005493,1.680374 0.501022,2.585724c-0.880783,0.905365 -2.013214,1.164886 -3.398438,2.199387l0,0z"/>
   <path fill-rule="evenodd" stroke="#000000" stroke-width="0.036" stroke-miterlimit="10" id="path193" d="m321.389832,299.903961c-0.122406,1.553619 -0.376343,4.397675 -0.754974,6.467896c-0.376343,1.809509 -1.006653,5.167938 -1.382965,6.074463c-1.008881,0.904236 -1.763794,0.259521 -2.269409,0c-0.627991,-0.775024 -0.125854,-1.034515 0.126953,-3.74939c0.124725,-3.489929 0.378662,-11.894165 1.259399,-14.221558c0.62915,-2.325104 2.015503,-0.389862 2.770447,0.774994c0.378601,0.904205 0.128143,2.457733 0.250549,4.653595l0,0z"/>
   <path fill-rule="evenodd" stroke="#000000" stroke-width="0.036" stroke-miterlimit="10" id="path195" d="m314.591766,297.577789c-0.378601,1.422028 -1.008911,3.620209 -1.387512,5.55899c-0.755005,1.810699 -1.384064,4.008942 -1.88855,5.173767c-0.883026,0.775024 -2.016602,0 -2.016602,-0.260681c-0.24939,-0.518951 -0.24939,-0.904144 0.505554,-3.232697c0.253937,-2.714935 1.635742,-10.85849 2.644592,-12.411987c0.755005,-1.81076 1.88858,-0.129211 2.395325,1.034485c0.249359,0.775024 0.001099,2.328583 -0.252808,4.138123l0,0z"/>
   <path fill-rule="evenodd" stroke="#000000" stroke-width="0.036" stroke-miterlimit="10" id="path197" d="m420.004211,306.88736c0.629211,0.904205 1.509949,2.327393 2.645813,4.267303c0.627991,1.809509 2.390686,5.300659 3.398468,6.979828c1.008881,1.294037 2.395233,1.67923 2.646912,0.648193c-0.251678,-1.682709 -1.387543,-6.467865 -2.89743,-9.31073c-1.761566,-3.100098 -4.78598,-7.109039 -6.172333,-8.014374c-1.509918,-1.034576 -3.019867,1.035645 -2.644623,2.195892c-0.252808,0.648163 1.889648,2.069031 3.023193,3.233887l0,0z"/>
   <path fill-rule="evenodd" stroke="#000000" stroke-width="0.036" stroke-miterlimit="10" id="path199" d="m413.074677,309.471954c0.759521,1.034485 1.387512,1.80954 2.395264,3.74939c0.502136,1.810699 2.140198,4.528015 3.023285,6.078033c1.005463,1.164825 1.763855,1.550049 2.264862,0.645844c0,-1.420898 -1.509949,-5.818512 -2.516571,-8.272736c-1.514435,-2.844086 -4.284912,-6.332855 -5.4151,-6.983337c-1.640259,-1.034515 -2.395203,0.779663 -2.26825,1.93985c-0.126953,0.903046 1.387482,1.682709 2.51651,2.842957l0,0z"/>
   <path fill-rule="evenodd" stroke="#000000" stroke-width="0.036" stroke-miterlimit="10" id="path201" d="m483.476654,207.593689c1.640259,0.130371 4.033234,0.517868 6.173431,1.163727c1.763824,0.515518 5.03537,0.90535 5.918396,1.680374c0.880859,0.647003 0.3797,1.423203 -0.126923,2.327377c-0.754913,0.259506 -1.003235,0 -3.652374,-0.258347c-3.398468,-0.776169 -11.584045,-1.294022 -13.853455,-2.069031c-2.012115,-1.422058 -0.375214,-2.197067 1.007751,-2.844101c0.631378,-0.516678 2.771576,-0.516678 4.533173,0l0,0z"/>
   <path fill-rule="evenodd" stroke="#000000" stroke-width="0.036" stroke-miterlimit="10" id="path203" d="m480.83313,214.447906c1.514465,0.516663 3.276031,0.775009 5.289276,1.80954c1.387482,0.645844 4.156891,1.162506 4.911774,2.067871c0.37973,0.647003 0.253937,1.681549 -0.375183,2.069061c-0.880768,0.260681 -0.632599,-0.129166 -3.149109,-0.647018c-2.89743,-1.292862 -10.076355,-2.455414 -11.837921,-3.489914c-2.014404,-1.291702 0.126953,-2.069061 1.134705,-2.327423c0.753845,-0.517838 2.263763,0.128021 4.026459,0.517883l0,0z"/>
   <path fill-rule="evenodd" stroke="#000000" stroke-width="0.036" stroke-miterlimit="10" id="path205" d="m283.482971,179.925629c-5.916107,-4.267258 -21.912018,-11.377457 -32.993896,-18.35849c-11.586258,-7.36969 -25.692505,-18.101303 -34.508347,-23.789459c-8.814682,-5.688141 -14.232056,-9.697083 -17.630539,-10.988815c-3.653503,-1.680367 -4.282623,-0.130325 -3.778198,1.163704c0.124695,0.644707 1.005493,1.29287 5.540909,4.394127c4.407349,2.974442 11.963791,7.758392 20.653809,13.83522c8.689987,5.557816 20.025772,14.481049 29.595444,20.298386c8.815796,5.299454 18.261932,10.730438 24.431976,13.83284c5.544342,3.103592 9.067474,4.782806 10.577423,5.042313c1.387512,-0.386353 3.528809,-1.550034 -1.88858,-5.429825l0,0z"/>
   <path fill-rule="evenodd" stroke="#000000" stroke-width="0.036" stroke-miterlimit="10" id="path207" d="m186.636948,167.25647c6.548691,1.679214 15.365646,4.524445 25.944199,7.110199c9.948273,2.584564 23.675888,4.524445 33.878067,7.240509c10.201035,2.327393 20.149368,4.006622 26.447525,6.075699c5.289246,1.552353 7.556427,2.585724 8.312531,3.620224c0.754944,1.034546 2.142456,2.716095 -3.150238,2.069061c-6.04425,-1.164871 -19.394379,-5.301804 -29.845917,-7.498871c-10.579727,-2.456558 -21.409912,-4.138092 -31.989609,-6.4655c-10.957123,-2.84407 -25.566696,-7.498871 -32.619797,-9.437592c-7.431732,-2.197052 -7.933914,-1.938705 -10.32576,-2.71373c-2.897415,-1.423203 -4.15683,-3.61911 -3.779343,-4.138107c0.251663,-0.775024 2.897415,0 5.91954,0.776184c2.770447,0.258347 4.910645,1.552368 11.208801,3.361923l0,0z"/>
   <path fill-rule="evenodd" stroke="#000000" stroke-width="0.036" stroke-miterlimit="10" id="path209" d="m175.301193,208.499069c8.564163,-0.647034 26.824936,-1.939896 38.287659,-2.456573c10.703262,-0.645844 18.512482,-1.03569 27.832779,-1.162521c9.06633,-0.517853 22.28949,-1.811874 27.957367,-1.423203c5.290436,0 6.549835,2.327377 5.164642,2.973221c-1.636902,0.388687 -4.911835,1.034531 -13.223206,1.422043c-8.943954,0.259521 -24.811752,0.129181 -37.405762,1.164871c-12.845734,0.387512 -24.936462,2.069061 -36.775543,2.974411c-12.090729,1.034531 -25.943054,2.066727 -33.374786,2.584564c-7.30365,-0.387497 -9.444962,-1.291687 -9.822464,-2.197052c-0.630249,-1.034531 1.889679,-2.457733 5.540955,-2.714905c3.274887,-0.90535 10.074097,-0.647018 14.607269,-0.776169c4.034409,-0.388687 2.89856,-0.00116 11.21109,-0.388687l0,0z"/>
   <path fill-rule="evenodd" stroke="#000000" stroke-width="0.036" stroke-miterlimit="10" id="path211" d="m402.119812,216.256271c7.055389,0.128006 23.805115,3.878601 37.151855,5.300644c12.971497,1.162537 29.093262,1.292862 41.560364,1.809555c12.343475,0.258347 24.936462,-0.90419 30.982849,0c5.667908,0.387527 2.89856,2.456558 2.390808,3.231583c-0.755005,0.130341 -0.376404,0 -7.050873,0.130341c-7.556427,-0.130341 -22.920929,0.516663 -34.888123,0.387482c-12.087341,-0.260651 -24.935303,-0.775009 -35.638519,-1.551193c-10.580841,-1.552368 -21.41217,-2.327377 -27.706879,-3.74942c-6.675659,-1.035706 -10.326935,-1.680389 -11.461639,-2.456589c-1.133575,-0.905334 -2.643494,-3.74826 4.660156,-3.102402l0,0z"/>
   <path fill-rule="evenodd" stroke="#000000" stroke-width="0.036" stroke-miterlimit="10" id="path213" d="m480.078186,262.153656c-7.93277,-2.714905 -15.868958,-5.948822 -25.18811,-9.697083c-10.076324,-4.264954 -21.913177,-10.212616 -31.61322,-14.349548c-9.569611,-4.395309 -19.521271,-8.791748 -24.936401,-10.731628c-5.666748,-2.067886 -7.806946,-2.584579 -8.813568,-2.067886c-1.513306,0 -3.652374,1.03569 1.384125,3.62027c5.038727,2.197052 18.387726,7.240524 28.46524,11.636978c9.695465,4.394119 19.141602,9.178085 29.720123,13.831696c10.579681,4.397614 22.67041,8.145874 31.863739,11.766144c8.564148,3.103577 15.112885,5.29834 19.645996,6.593506c3.779419,0.904175 5.415131,-0.774994 5.415131,-1.034515c-0.378601,-1.035675 -1.007782,-1.163696 -5.288177,-2.844086c-4.660065,-1.94104 -12.845673,-4.010071 -20.654877,-6.723846l0,0z"/>
   <path fill-rule="evenodd" stroke="#000000" stroke-width="0.036" stroke-miterlimit="10" id="path215" d="m460.810791,288.270538c-6.675659,-5.818512 -21.537994,-17.584625 -29.975189,-24.824005c-9.067535,-7.242859 -16.372284,-13.061356 -21.913239,-17.45546c-5.542023,-4.396454 -8.185516,-7.498856 -10.83017,-8.790573c-3.149078,-1.552383 -6.426239,-2.199387 -5.919556,-0.517822c0.628052,1.550034 4.911804,4.524429 9.947174,8.918564c4.658997,3.492233 10.706604,7.887527 18.638275,14.225052c7.811462,6.204834 19.020264,16.417419 28.337158,24.174622c9.319153,7.368561 19.396637,17.455444 25.819489,21.849609c5.540924,4.008881 8.186707,4.394104 9.320313,4.138092c0.754913,-0.388641 -0.759552,-3.363098 -3.024414,-5.432129c-2.769348,-2.584625 -8.057465,-6.849548 -11.46048,-9.307281c-3.272614,-2.973236 -3.023224,-1.80954 -8.939362,-6.978668l0,0z"/>
   <path fill-rule="evenodd" stroke="#000000" stroke-width="0.036" stroke-miterlimit="10" id="path217" d="m379.199982,105.973839c1.384125,-0.776192 3.398499,-2.199394 6.548706,-3.23159c3.150177,-1.034538 8.940491,-2.199387 12.090759,-2.974419c2.142426,-1.034523 3.525391,-1.681534 3.652344,-2.456566c0.376343,-0.775024 -0.62912,-1.93988 -1.635742,-1.551208c-1.763855,-0.127998 -3.779358,0.904198 -6.047638,1.681541c-2.142456,0.517853 -4.407318,1.42205 -6.798065,2.197067c-2.522186,0.648178 -5.793701,1.682709 -7.431732,2.586899c-1.88855,0.775024 -2.646881,2.3274 -2.769318,3.102425c-0.001129,0.515503 0.626862,0.903015 2.390686,0.645851l0,0z"/>
   <path fill-rule="evenodd" stroke="#000000" stroke-width="0.036" stroke-miterlimit="10" id="path219" d="m375.800385,102.611916c1.131348,-1.034538 1.889679,-2.586906 4.660126,-4.136955c2.264923,-1.551201 7.176727,-3.878601 9.441589,-4.913124c1.763855,-1.422035 2.143585,-2.19706 2.522217,-2.844078c-0.251678,-0.776184 -0.632568,-1.422043 -1.639191,-0.90535c-1.25708,0.258331 -3.14679,1.292862 -4.658966,2.585739c-1.886292,1.034515 -3.653534,1.938705 -5.288147,3.23275c-1.890808,1.032181 -4.534332,2.455399 -5.543182,3.749428c-1.382965,0.905357 -1.762726,2.585739 -1.635773,3.102417c-0.126953,0.516685 0.753845,0.387512 2.141327,0.129173l0,0z"/>
   <path fill-rule="evenodd" stroke="#000000" stroke-width="0.036" stroke-miterlimit="10" id="path221" d="m354.764587,98.086296c-0.501038,-1.29287 -0.627991,-4.654793 -0.879639,-6.593513c-0.63028,-2.067894 -1.385223,-4.395287 -2.264862,-5.946503c-1.635773,-1.809555 -3.653534,-3.878593 -4.533173,-4.783958c-1.008942,-1.163704 -0.506744,-2.069054 0,-2.199387c0,-0.515526 1.130157,-0.904198 2.010925,-0.128014c1.008911,0.517845 2.773865,1.680397 4.283783,4.006615c1.134735,2.069054 2.644653,6.854179 3.524323,9.437584c0.630249,2.199394 0.754974,4.782791 0.37973,5.818489c-0.504425,1.035698 -2.140198,1.164871 -2.521088,0.388687l0,0z"/>
   <path fill-rule="evenodd" stroke="#000000" stroke-width="0.036" stroke-miterlimit="10" id="path223" d="m361.314423,97.568436c-0.376343,-1.422028 -0.628021,-5.816147 -0.24939,-8.27272c0.122437,-3.232758 0.376373,-6.854179 1.256012,-8.404228c0.632507,-1.811867 1.513306,-1.163696 2.142426,-0.516685c0.125854,0.644691 -0.505524,2.197075 -0.378571,4.654793c-0.376373,2.067902 -0.376373,5.429825 -0.501068,7.628044c-0.38089,1.939888 0,3.361923 -0.253937,4.267281c-0.881897,0.773857 -1.382965,1.679214 -2.015472,0.643517l0,0z"/>
   <path fill-rule="evenodd" stroke="#000000" stroke-width="0.036" stroke-miterlimit="10" id="path225" d="m368.997803,98.345787c-0.378601,-0.777351 -0.124695,-1.809547 0.754974,-3.103577c0.63028,-1.680374 2.395233,-4.006599 3.905182,-5.557816c1.008881,-1.552383 3.273773,-2.71492 4.407349,-4.007782c1.134674,-1.811867 1.513306,-3.878601 3.023254,-5.17263c1.00885,-1.550041 3.273743,-3.103584 4.407318,-3.103584c0.63028,-0.516685 1.261688,0.517838 0.881927,1.552368c-0.62912,0.644691 -2.391846,1.938721 -3.400757,3.360764c-1.385193,1.29287 -2.014313,2.714912 -3.276001,4.782799c-1.635742,1.551208 -4.026489,3.232758 -5.162323,5.042305c-1.382965,1.291687 -2.014374,2.456566 -2.390717,3.491089c-0.505585,0.775017 -0.632538,1.422043 -0.880768,1.937553c-0.885345,0.1315 -2.142517,1.036858 -2.26944,0.778511l0,0z"/>
   <path fill-rule="evenodd" stroke="#000000" stroke-width="0.036" stroke-miterlimit="10" id="path227" d="m337.010529,207.852036c-4.032135,-1.162521 -7.307068,-2.84407 -10.326904,-4.52327c-2.89743,-1.810715 -5.165741,-3.749451 -7.30365,-6.336334c-2.522156,-3.102402 -4.660126,-7.885208 -7.430603,-11.377472c-3.27713,-4.266129 -8.190063,-8.015549 -10.834686,-11.247131c-2.89743,-3.232758 -4.280396,-5.301804 -5.162354,-7.628052c-1.008881,-3.102417 -1.008881,-6.075653 0,-8.404236c0.501099,-2.714905 1.88858,-4.782776 4.660156,-5.688126c3.023285,-1.163712 7.050842,-0.90654 12.090698,0.775009c4.659027,1.423218 9.446106,4.783951 14.860107,8.533401c4.78598,3.231567 9.568542,8.790573 13.853424,11.636978c4.028748,2.454239 4.787109,2.584564 10.454987,3.359589c5.542053,0.517853 15.110596,-0.775024 21.912048,0.648178c6.298187,1.163696 11.837982,4.007782 15.61618,6.463181c3.52655,1.93988 4.533173,3.491104 4.407379,6.205994c-0.62915,2.71608 -3.525482,6.206009 -6.798126,8.922058c-4.157928,1.939896 -10.078613,3.361923 -13.853424,4.783981c-3.655762,1.550034 -4.787109,2.84407 -7.307037,4.394119c-3.019867,1.551193 -5.162323,3.621414 -9.321381,4.139267c-4.533234,-0.129181 -9.441589,-1.163696 -16.119476,-3.621414l0,0c-2.267151,5.561295 -3.777069,10.342911 -5.038788,15.904236c-1.255981,5.170303 -2.390686,10.08461 -2.014343,15.256073c0.125793,4.781631 1.767242,10.9888 3.528809,15.124557c1.008881,4.138107 3.019867,6.722702 5.542084,9.697128c2.643494,2.714874 6.798065,5.043488 10.577423,6.464325c3.147919,0.904205 6.547516,0.388702 10.705475,-0.126831c4.154572,-1.294006 11.333496,-4.267303 14.230927,-4.914337c2.393005,-0.775024 2.521057,0.386383 1.88855,1.551239c-1.256012,0.645844 -3.273773,1.93988 -6.548676,3.363098c-3.273773,1.031036 -7.55304,2.970886 -11.836823,3.359558c-4.787109,0 -10.957153,-0.774994 -15.110596,-2.844025c-4.413025,-2.585785 -8.438354,-6.079193 -10.58078,-10.473328c-2.395233,-4.394104 -3.652405,-10.601273 -4.281525,-14.611359c-0.879639,-4.394135 -1.133575,-7.756058 -0.757233,-10.600113l0,0c-2.771606,4.396423 -5.669037,8.27504 -9.193298,11.635788c-3.905182,3.233932 -7.933929,6.467834 -12.090759,8.147064c-4.028748,1.290527 -8.186676,0.775024 -11.964905,-0.130325c-4.279266,-1.550049 -7.931641,-4.008957 -11.458191,-6.853043c-3.778229,-2.71489 -7.053101,-6.593506 -9.319153,-9.567917c-2.896271,-3.489914 -4.78479,-8.27272 -5.666748,-10.341766c-1.008881,-2.327408 0.501038,-3.102432 1.132416,-2.845261c0.252808,-0.129166 1.007782,1.680374 2.266052,3.491104c0.881927,2.067902 2.519928,4.396439 4.410706,7.498856c1.511108,2.197067 4.028748,5.557816 7.050903,8.145889c3.145691,2.454254 7.430603,5.947678 11.331207,7.497711c3.404114,1.163696 6.047668,1.424377 9.447235,0.775024c3.022095,-1.034531 5.667908,-2.069046 9.446106,-5.039978c3.526581,-3.493408 8.816956,-9.052399 11.964935,-13.189362c2.769318,-4.138092 3.023224,-7.628021 4.658966,-10.988785c1.133575,-4.008942 2.26944,-8.403046 2.89743,-11.119141c0.626892,-2.973221 1.25827,-4.396423 1.385254,-5.301804l0,0z"/>
   <path fill="#ffffff" fill-rule="evenodd" stroke="#000000" stroke-width="0.036" stroke-miterlimit="10" id="path229" d="m302.376343,158.335541c-0.128082,0.517883 0.124634,1.163727 0.754944,1.423233c0.628021,0.257156 1.259399,0.128021 1.512207,-0.388687c0.24939,-0.515518 -0.124725,-1.162537 -0.757233,-1.550064c-0.503296,-0.260651 -1.25827,-0.001144 -1.509918,0.515518l0,0z"/>
   <path fill="#ffffff" fill-rule="evenodd" stroke="#000000" stroke-width="0.036" stroke-miterlimit="10" id="path231" d="m305.398468,157.301041c-0.252808,0.517838 0.125793,1.163681 0.754913,1.422028c0.502228,0.258331 1.257172,0 1.509949,-0.516693c0.125854,-0.517838 -0.124664,-1.164856 -0.754974,-1.422043c-0.62912,-0.259476 -1.260559,0 -1.509888,0.516708l0,0z"/>
   <path fill="#ffffff" fill-rule="evenodd" stroke="#000000" stroke-width="0.036" stroke-miterlimit="10" id="path233" d="m326.931885,168.161819c-0.249359,0.516678 0.125824,1.163696 0.759491,1.422043c0.628021,0.258331 1.255981,0 1.509918,-0.516678c0.124725,-0.516693 -0.126953,-1.163696 -0.754944,-1.422043c-0.632568,-0.258347 -1.261688,-0.001144 -1.514465,0.516678l0,0z"/>
   <path fill="#ffffff" fill-rule="evenodd" stroke="#000000" stroke-width="0.036" stroke-miterlimit="10" id="path235" d="m329.579956,171.135071c-0.125885,0.645844 0.122406,1.292862 0.754913,1.550049c0.62912,0.260681 1.256012,0 1.509949,-0.514343c0.253906,-0.517883 -0.125824,-1.163712 -0.754974,-1.424377c-0.62915,-0.258347 -1.260498,-0.128006 -1.509888,0.388672l0,0z"/>
   <path fill="#ffffff" fill-rule="evenodd" stroke="#000000" stroke-width="0.036" stroke-miterlimit="10" id="path237" d="m378.946075,195.569229c-0.24942,0.517853 0.126953,1.163696 0.754974,1.422043c0.632507,0.259506 1.260529,0.129166 1.514465,-0.387527c0.125824,-0.516663 -0.126953,-1.291687 -0.755005,-1.552383c-0.632507,-0.257156 -1.260529,0.00119 -1.514435,0.517868l0,0z"/>
   <path fill="#ffffff" fill-rule="evenodd" stroke="#000000" stroke-width="0.036" stroke-miterlimit="10" id="path239" d="m356.026276,207.077011c-0.253906,0.516678 0.124695,1.164886 0.754974,1.422058c0.632507,0.259506 1.259399,0 1.512177,-0.517853c0.250519,-0.516693 -0.124664,-1.162537 -0.757233,-1.422043c-0.62912,-0.257172 -1.257141,-0.129181 -1.509918,0.517838l0,0z"/>
   <path fill="#ffffff" fill-rule="evenodd" stroke="#000000" stroke-width="0.036" stroke-miterlimit="10" id="path241" d="m321.517883,161.307648c-1.25824,-0.775024 -1.763794,-1.162552 -2.897369,-1.680389c-1.008911,-0.647018 -2.264923,-0.90419 -3.273773,-1.292877c-1.387512,-0.647003 -3.023254,-1.034515 -3.905182,-1.163696c-1.256012,-0.130325 -2.014374,-0.517822 -2.264893,-0.130325c-0.253906,-0.128021 -0.758362,0.90535 -0.125854,1.164871c0.125854,0.12915 -0.126953,0.12915 1.134735,0.516663c0.880798,0.129166 2.894012,0.645859 4.533173,1.034546c1.384094,0.387497 2.51767,1.162537 3.901794,1.809555c0.880768,0.516678 1.888519,1.422043 3.023254,2.197052c0.879639,0.904205 2.015472,1.552368 2.8974,2.456573c0.62915,0 1.260529,0 1.387512,-0.516693c0,-0.775024 -1.134705,-1.292862 -1.513336,-2.067886c-0.883087,-1.032211 -2.016663,-1.80957 -2.897461,-2.327393l0,0z"/>
   <path fill="#ffffff" fill-rule="evenodd" stroke="#000000" stroke-width="0.036" stroke-miterlimit="10" id="path243" d="m366.481262,201.000183c0.501038,-0.647003 1.133575,-1.034515 1.88855,-1.163696c0.502167,-0.517838 2.137878,-0.645828 3.019867,-0.90535c0.880768,-0.257172 1.007721,-0.127991 2.26828,-0.127991c0.501038,-0.906525 2.264893,-1.034546 2.89743,-1.424377c0.502136,-0.258331 1.385193,0 1.257111,0.776184c-0.627991,0.387512 -1.257111,1.551208 -2.390686,2.067886c-0.754974,0.259521 -2.142487,0.259521 -2.771606,0.517853c-1.007782,0.12915 -1.88858,0.12915 -2.643524,0.516678c-1.008881,0 -1.259369,0.777359 -2.268311,1.295212c-1.384064,0.644669 -2.8974,1.679199 -4.028687,2.584564c-1.512207,0.517838 -2.521057,1.034515 -3.022156,1.034515c-0.754944,-0.129166 -0.754944,-0.90419 -0.506683,-1.291687c0.253937,-0.648193 0.758362,-1.163696 2.016632,-1.551208c0.757233,-0.648193 3.147919,-2.070236 4.283783,-2.328583l0,0z"/>
  </g>
 </g>
</svg>